<svg width="368" height="152" viewBox="0 0 368 152" fill="none" xmlns="http://www.w3.org/2000/svg">
<g clip-path="url(#clip0_11_2)">
<path d="M35.2209 140.273H36.4823L39.4482 147.517H39.5505L42.5164 140.273H43.7778V149H42.7891V142.369H42.7039L39.9766 149H39.0221L36.2948 142.369H36.2096V149H35.2209V140.273ZM48.4194 149.136C47.8285 149.136 47.3101 148.996 46.8641 148.714C46.4209 148.433 46.0743 148.04 45.8243 147.534C45.5771 147.028 45.4535 146.437 45.4535 145.761C45.4535 145.08 45.5771 144.484 45.8243 143.976C46.0743 143.467 46.4209 143.072 46.8641 142.791C47.3101 142.51 47.8285 142.369 48.4194 142.369C49.0104 142.369 49.5274 142.51 49.9706 142.791C50.4166 143.072 50.7632 143.467 51.0104 143.976C51.2604 144.484 51.3854 145.08 51.3854 145.761C51.3854 146.437 51.2604 147.028 51.0104 147.534C50.7632 148.04 50.4166 148.433 49.9706 148.714C49.5274 148.996 49.0104 149.136 48.4194 149.136ZM48.4194 148.233C48.8683 148.233 49.2376 148.118 49.5274 147.888C49.8172 147.658 50.0317 147.355 50.1709 146.98C50.3101 146.605 50.3797 146.199 50.3797 145.761C50.3797 145.324 50.3101 144.916 50.1709 144.538C50.0317 144.161 49.8172 143.855 49.5274 143.622C49.2376 143.389 48.8683 143.273 48.4194 143.273C47.9706 143.273 47.6013 143.389 47.3115 143.622C47.0217 143.855 46.8072 144.161 46.668 144.538C46.5288 144.916 46.4592 145.324 46.4592 145.761C46.4592 146.199 46.5288 146.605 46.668 146.98C46.8072 147.355 47.0217 147.658 47.3115 147.888C47.6013 148.118 47.9706 148.233 48.4194 148.233Z" fill="#535353"/>
<path d="M79.9986 141.21V140.273H86.544V141.21H83.7997V149H82.7429V141.21H79.9986ZM89.8338 149.136C89.2031 149.136 88.6591 148.997 88.2017 148.719C87.7472 148.438 87.3963 148.045 87.1492 147.543C86.9048 147.037 86.7827 146.449 86.7827 145.778C86.7827 145.108 86.9048 144.517 87.1492 144.006C87.3963 143.491 87.7401 143.091 88.1804 142.804C88.6236 142.514 89.1406 142.369 89.7315 142.369C90.0724 142.369 90.4091 142.426 90.7415 142.54C91.0739 142.653 91.3764 142.838 91.6492 143.094C91.9219 143.347 92.1392 143.682 92.3011 144.099C92.4631 144.517 92.544 145.031 92.544 145.642V146.068H87.4986V145.199H91.5213C91.5213 144.83 91.4474 144.5 91.2997 144.21C91.1548 143.92 90.9474 143.692 90.6776 143.524C90.4105 143.357 90.0952 143.273 89.7315 143.273C89.331 143.273 88.9844 143.372 88.6918 143.571C88.402 143.767 88.179 144.023 88.0227 144.338C87.8665 144.653 87.7884 144.991 87.7884 145.352V145.932C87.7884 146.426 87.8736 146.845 88.044 147.189C88.2173 147.53 88.4574 147.79 88.7642 147.969C89.071 148.145 89.4276 148.233 89.8338 148.233C90.098 148.233 90.3367 148.196 90.5497 148.122C90.7656 148.045 90.9517 147.932 91.108 147.781C91.2642 147.628 91.3849 147.437 91.4702 147.21L92.4418 147.483C92.3395 147.812 92.1676 148.102 91.9261 148.352C91.6847 148.599 91.3864 148.793 91.0313 148.932C90.6761 149.068 90.277 149.136 89.8338 149.136Z" fill="#535353"/>
<path d="M132.759 149L130.373 140.273H131.447L133.271 147.381H133.356L135.214 140.273H136.407L138.265 147.381H138.35L140.174 140.273H141.248L138.862 149H137.771L135.845 142.045H135.776L133.85 149H132.759ZM144.563 149.136C143.933 149.136 143.389 148.997 142.931 148.719C142.477 148.438 142.126 148.045 141.879 147.543C141.634 147.037 141.512 146.449 141.512 145.778C141.512 145.108 141.634 144.517 141.879 144.006C142.126 143.491 142.47 143.091 142.91 142.804C143.353 142.514 143.87 142.369 144.461 142.369C144.802 142.369 145.139 142.426 145.471 142.54C145.803 142.653 146.106 142.838 146.379 143.094C146.651 143.347 146.869 143.682 147.031 144.099C147.193 144.517 147.273 145.031 147.273 145.642V146.068H142.228V145.199H146.251C146.251 144.83 146.177 144.5 146.029 144.21C145.884 143.92 145.677 143.692 145.407 143.524C145.14 143.357 144.825 143.273 144.461 143.273C144.06 143.273 143.714 143.372 143.421 143.571C143.131 143.767 142.908 144.023 142.752 144.338C142.596 144.653 142.518 144.991 142.518 145.352V145.932C142.518 146.426 142.603 146.845 142.773 147.189C142.947 147.53 143.187 147.79 143.494 147.969C143.8 148.145 144.157 148.233 144.563 148.233C144.827 148.233 145.066 148.196 145.279 148.122C145.495 148.045 145.681 147.932 145.837 147.781C145.994 147.628 146.114 147.437 146.2 147.21L147.171 147.483C147.069 147.812 146.897 148.102 146.656 148.352C146.414 148.599 146.116 148.793 145.761 148.932C145.406 149.068 145.006 149.136 144.563 149.136Z" fill="#535353"/>
<path d="M194.698 141.21V140.273H201.243V141.21H198.499V149H197.442V141.21H194.698ZM203.744 145.062V149H202.738V140.273H203.744V143.477H203.829C203.982 143.139 204.212 142.871 204.519 142.672C204.829 142.47 205.241 142.369 205.755 142.369C206.201 142.369 206.592 142.459 206.927 142.638C207.262 142.814 207.522 143.085 207.707 143.452C207.894 143.815 207.988 144.278 207.988 144.841V149H206.982V144.909C206.982 144.389 206.847 143.987 206.578 143.703C206.311 143.416 205.94 143.273 205.465 143.273C205.136 143.273 204.84 143.342 204.579 143.482C204.32 143.621 204.116 143.824 203.965 144.091C203.818 144.358 203.744 144.682 203.744 145.062Z" fill="#535353"/>
<path d="M250.062 149V140.273H255.295V141.21H251.119V144.159H254.903V145.097H251.119V149H250.062ZM256.898 149V142.455H257.87V143.443H257.938C258.058 143.119 258.273 142.857 258.586 142.655C258.898 142.453 259.251 142.352 259.643 142.352C259.717 142.352 259.809 142.354 259.92 142.357C260.031 142.359 260.114 142.364 260.171 142.369V143.392C260.137 143.384 260.059 143.371 259.937 143.354C259.817 143.334 259.691 143.324 259.558 143.324C259.239 143.324 258.955 143.391 258.705 143.524C258.458 143.655 258.262 143.837 258.117 144.07C257.975 144.3 257.904 144.562 257.904 144.858V149H256.898Z" fill="#535353"/>
<path d="M311.066 142.455C311.015 142.023 310.808 141.688 310.444 141.449C310.081 141.21 309.635 141.091 309.106 141.091C308.72 141.091 308.382 141.153 308.092 141.278C307.805 141.403 307.581 141.575 307.419 141.794C307.26 142.013 307.18 142.261 307.18 142.54C307.18 142.773 307.235 142.973 307.346 143.141C307.46 143.305 307.605 143.443 307.781 143.554C307.957 143.662 308.142 143.751 308.335 143.822C308.528 143.891 308.706 143.946 308.867 143.989L309.754 144.227C309.981 144.287 310.234 144.369 310.512 144.474C310.794 144.58 311.062 144.723 311.318 144.905C311.576 145.084 311.789 145.314 311.957 145.595C312.125 145.876 312.208 146.222 312.208 146.631C312.208 147.102 312.085 147.528 311.838 147.909C311.593 148.29 311.235 148.592 310.764 148.817C310.295 149.041 309.725 149.153 309.055 149.153C308.43 149.153 307.889 149.053 307.431 148.851C306.977 148.649 306.619 148.368 306.358 148.007C306.099 147.646 305.953 147.227 305.919 146.75H307.01C307.038 147.08 307.149 147.352 307.342 147.568C307.538 147.781 307.785 147.94 308.083 148.045C308.385 148.148 308.708 148.199 309.055 148.199C309.458 148.199 309.821 148.134 310.142 148.003C310.463 147.869 310.717 147.685 310.904 147.449C311.092 147.21 311.186 146.932 311.186 146.614C311.186 146.324 311.105 146.088 310.943 145.906C310.781 145.724 310.568 145.577 310.304 145.463C310.039 145.349 309.754 145.25 309.447 145.165L308.373 144.858C307.691 144.662 307.152 144.382 306.754 144.018C306.356 143.655 306.157 143.179 306.157 142.591C306.157 142.102 306.289 141.676 306.554 141.312C306.821 140.946 307.179 140.662 307.627 140.46C308.079 140.256 308.583 140.153 309.14 140.153C309.703 140.153 310.203 140.254 310.64 140.456C311.078 140.655 311.424 140.928 311.68 141.274C311.939 141.621 312.075 142.014 312.089 142.455H311.066ZM315.736 149.153C315.321 149.153 314.945 149.075 314.606 148.919C314.268 148.76 314 148.531 313.801 148.233C313.602 147.932 313.503 147.568 313.503 147.142C313.503 146.767 313.577 146.463 313.724 146.23C313.872 145.994 314.07 145.81 314.317 145.676C314.564 145.543 314.837 145.443 315.135 145.378C315.436 145.31 315.739 145.256 316.043 145.216C316.44 145.165 316.763 145.126 317.01 145.101C317.26 145.072 317.442 145.026 317.555 144.96C317.672 144.895 317.73 144.781 317.73 144.619V144.585C317.73 144.165 317.615 143.838 317.385 143.605C317.158 143.372 316.812 143.256 316.349 143.256C315.869 143.256 315.493 143.361 315.22 143.571C314.947 143.781 314.756 144.006 314.645 144.244L313.69 143.903C313.861 143.506 314.088 143.196 314.372 142.974C314.659 142.75 314.972 142.594 315.31 142.506C315.651 142.415 315.986 142.369 316.315 142.369C316.526 142.369 316.767 142.395 317.04 142.446C317.315 142.494 317.581 142.595 317.837 142.749C318.095 142.902 318.31 143.134 318.48 143.443C318.651 143.753 318.736 144.168 318.736 144.688V149H317.73V148.114H317.679C317.611 148.256 317.497 148.408 317.338 148.57C317.179 148.732 316.967 148.869 316.703 148.983C316.439 149.097 316.116 149.153 315.736 149.153ZM315.889 148.25C316.287 148.25 316.622 148.172 316.895 148.016C317.17 147.859 317.378 147.658 317.517 147.411C317.659 147.163 317.73 146.903 317.73 146.631V145.71C317.687 145.761 317.594 145.808 317.449 145.851C317.307 145.891 317.142 145.926 316.954 145.957C316.77 145.986 316.589 146.011 316.413 146.034C316.24 146.054 316.099 146.071 315.991 146.085C315.73 146.119 315.486 146.175 315.258 146.251C315.034 146.325 314.852 146.437 314.713 146.588C314.577 146.736 314.508 146.937 314.508 147.193C314.508 147.543 314.638 147.807 314.896 147.986C315.158 148.162 315.489 148.25 315.889 148.25Z" fill="#535353"/>
<path d="M359.346 142.455C359.295 142.023 359.088 141.688 358.724 141.449C358.361 141.21 357.915 141.091 357.386 141.091C357 141.091 356.662 141.153 356.372 141.278C356.085 141.403 355.861 141.575 355.699 141.794C355.54 142.013 355.46 142.261 355.46 142.54C355.46 142.773 355.515 142.973 355.626 143.141C355.74 143.305 355.885 143.443 356.061 143.554C356.237 143.662 356.422 143.751 356.615 143.822C356.808 143.891 356.986 143.946 357.148 143.989L358.034 144.227C358.261 144.287 358.514 144.369 358.792 144.474C359.074 144.58 359.342 144.723 359.598 144.905C359.856 145.084 360.069 145.314 360.237 145.595C360.405 145.876 360.488 146.222 360.488 146.631C360.488 147.102 360.365 147.528 360.118 147.909C359.873 148.29 359.515 148.592 359.044 148.817C358.575 149.041 358.006 149.153 357.335 149.153C356.71 149.153 356.169 149.053 355.711 148.851C355.257 148.649 354.899 148.368 354.638 148.007C354.379 147.646 354.233 147.227 354.199 146.75H355.29C355.318 147.08 355.429 147.352 355.622 147.568C355.818 147.781 356.065 147.94 356.363 148.045C356.665 148.148 356.988 148.199 357.335 148.199C357.738 148.199 358.101 148.134 358.422 148.003C358.743 147.869 358.997 147.685 359.185 147.449C359.372 147.21 359.466 146.932 359.466 146.614C359.466 146.324 359.385 146.088 359.223 145.906C359.061 145.724 358.848 145.577 358.584 145.463C358.319 145.349 358.034 145.25 357.727 145.165L356.653 144.858C355.971 144.662 355.432 144.382 355.034 144.018C354.636 143.655 354.437 143.179 354.437 142.591C354.437 142.102 354.569 141.676 354.834 141.312C355.101 140.946 355.459 140.662 355.908 140.46C356.359 140.256 356.863 140.153 357.42 140.153C357.983 140.153 358.483 140.254 358.92 140.456C359.358 140.655 359.704 140.928 359.96 141.274C360.219 141.621 360.355 142.014 360.369 142.455H359.346ZM366.215 146.324V142.455H367.22V149H366.215V147.892H366.147C365.993 148.224 365.754 148.507 365.431 148.74C365.107 148.97 364.698 149.085 364.203 149.085C363.794 149.085 363.431 148.996 363.112 148.817C362.794 148.635 362.544 148.362 362.362 147.999C362.181 147.632 362.09 147.17 362.09 146.614V142.455H363.095V146.545C363.095 147.023 363.229 147.403 363.496 147.688C363.766 147.972 364.11 148.114 364.527 148.114C364.777 148.114 365.031 148.05 365.29 147.922C365.551 147.794 365.77 147.598 365.946 147.334C366.125 147.07 366.215 146.733 366.215 146.324Z" fill="#535353"/>
<path d="M7.06534 102.273V111H6.00852V103.381H5.95738L3.8267 104.795V103.722L6.00852 102.273H7.06534ZM12.4219 111.119C11.7798 111.119 11.2329 110.945 10.7812 110.595C10.3295 110.243 9.98437 109.733 9.74573 109.065C9.5071 108.395 9.38778 107.585 9.38778 106.636C9.38778 105.693 9.5071 104.888 9.74573 104.22C9.98721 103.55 10.3338 103.038 10.7855 102.686C11.2401 102.331 11.7855 102.153 12.4219 102.153C13.0582 102.153 13.6023 102.331 14.054 102.686C14.5085 103.038 14.8551 103.55 15.0937 104.22C15.3352 104.888 15.456 105.693 15.456 106.636C15.456 107.585 15.3366 108.395 15.098 109.065C14.8594 109.733 14.5142 110.243 14.0625 110.595C13.6108 110.945 13.0639 111.119 12.4219 111.119ZM12.4219 110.182C13.0582 110.182 13.5526 109.875 13.9048 109.261C14.2571 108.648 14.4332 107.773 14.4332 106.636C14.4332 105.881 14.3523 105.237 14.1903 104.706C14.0312 104.175 13.8011 103.77 13.5 103.491C13.2017 103.213 12.8423 103.074 12.4219 103.074C11.7912 103.074 11.2983 103.385 10.9432 104.007C10.5881 104.626 10.4105 105.503 10.4105 106.636C10.4105 107.392 10.4901 108.034 10.6491 108.562C10.8082 109.091 11.0369 109.493 11.3352 109.768C11.6364 110.044 11.9986 110.182 12.4219 110.182ZM17.2287 111V102.273H18.2855V106.602H18.3878L22.3082 102.273H23.6889L20.0241 106.21L23.6889 111H22.4105L19.3764 106.943L18.2855 108.17V111H17.2287Z" fill="#535353"/>
<path d="M2.30966 71V70.233L5.19034 67.0795C5.52841 66.7102 5.80682 66.3892 6.02557 66.1165C6.24432 65.8409 6.40625 65.5824 6.51136 65.3409C6.61932 65.0966 6.67329 64.8409 6.67329 64.5739C6.67329 64.267 6.59943 64.0014 6.4517 63.777C6.30682 63.5526 6.10795 63.3793 5.85511 63.2571C5.60227 63.1349 5.31818 63.0739 5.00284 63.0739C4.66761 63.0739 4.375 63.1435 4.125 63.2827C3.87784 63.419 3.68608 63.6108 3.54971 63.858C3.41619 64.1051 3.34943 64.3949 3.34943 64.7273H2.34375C2.34375 64.2159 2.46165 63.767 2.69744 63.3807C2.93324 62.9943 3.25426 62.6932 3.66051 62.4773C4.0696 62.2614 4.52841 62.1534 5.03693 62.1534C5.54829 62.1534 6.00142 62.2614 6.39631 62.4773C6.79119 62.6932 7.10085 62.9844 7.32528 63.3509C7.54971 63.7173 7.66193 64.125 7.66193 64.5739C7.66193 64.8949 7.60369 65.2088 7.48721 65.5156C7.37358 65.8196 7.17471 66.1591 6.89062 66.5341C6.60937 66.9062 6.21875 67.3608 5.71875 67.8977L3.75852 69.9943V70.0625H7.81534V71H2.30966ZM12.4219 71.1193C11.7798 71.1193 11.233 70.9446 10.7812 70.5952C10.3295 70.2429 9.98437 69.733 9.74574 69.0653C9.5071 68.3949 9.38778 67.5852 9.38778 66.6364C9.38778 65.6932 9.5071 64.8878 9.74574 64.2202C9.98721 63.5497 10.3338 63.0384 10.7855 62.6861C11.2401 62.331 11.7855 62.1534 12.4219 62.1534C13.0582 62.1534 13.6023 62.331 14.054 62.6861C14.5085 63.0384 14.8551 63.5497 15.0937 64.2202C15.3352 64.8878 15.456 65.6932 15.456 66.6364C15.456 67.5852 15.3366 68.3949 15.098 69.0653C14.8594 69.733 14.5142 70.2429 14.0625 70.5952C13.6108 70.9446 13.0639 71.1193 12.4219 71.1193ZM12.4219 70.1818C13.0582 70.1818 13.5526 69.875 13.9048 69.2614C14.2571 68.6477 14.4332 67.7727 14.4332 66.6364C14.4332 65.8807 14.3523 65.2372 14.1903 64.706C14.0312 64.1747 13.8011 63.7699 13.5 63.4915C13.2017 63.2131 12.8423 63.0739 12.4219 63.0739C11.7912 63.0739 11.2983 63.3849 10.9432 64.0071C10.5881 64.6264 10.4105 65.5028 10.4105 66.6364C10.4105 67.392 10.4901 68.0341 10.6491 68.5625C10.8082 69.0909 11.0369 69.4929 11.3352 69.7685C11.6364 70.044 11.9986 70.1818 12.4219 70.1818ZM17.2287 71V62.2727H18.2855V66.6023H18.3878L22.3082 62.2727H23.6889L20.0241 66.2102L23.6889 71H22.4105L19.3764 66.9432L18.2855 68.1705V71H17.2287Z" fill="#535353"/>
<path d="M4.87377 31.1193C4.31127 31.1193 3.80985 31.0227 3.36951 30.8295C2.93201 30.6364 2.584 30.3679 2.32548 30.0241C2.0698 29.6776 1.93059 29.2756 1.90786 28.8182H2.98173C3.00445 29.0994 3.10105 29.3423 3.2715 29.5469C3.44195 29.7486 3.66497 29.9048 3.94053 30.0156C4.2161 30.1264 4.5215 30.1818 4.85673 30.1818C5.23173 30.1818 5.56411 30.1165 5.85389 29.9858C6.14366 29.8551 6.37093 29.6733 6.5357 29.4403C6.70048 29.2074 6.78286 28.9375 6.78286 28.6307C6.78286 28.3097 6.70332 28.027 6.54423 27.7827C6.38514 27.5355 6.15218 27.3423 5.84536 27.2031C5.53855 27.0639 5.16355 26.9943 4.72036 26.9943H4.0215V26.0568H4.72036C5.06695 26.0568 5.37093 25.9943 5.6323 25.8693C5.8965 25.7443 6.10247 25.5682 6.25019 25.3409C6.40076 25.1136 6.47605 24.8466 6.47605 24.5398C6.47605 24.2443 6.4107 23.9872 6.28002 23.7685C6.14934 23.5497 5.96468 23.3793 5.72605 23.2571C5.49025 23.1349 5.21184 23.0739 4.89082 23.0739C4.58968 23.0739 4.30559 23.1293 4.03855 23.2401C3.77434 23.348 3.55843 23.5057 3.39082 23.7131C3.2232 23.9176 3.1323 24.1648 3.11809 24.4545H2.09536C2.11241 23.9972 2.25019 23.5966 2.50872 23.2528C2.76724 22.9062 3.10531 22.6364 3.52292 22.4432C3.94337 22.25 4.40502 22.1534 4.90786 22.1534C5.44764 22.1534 5.9107 22.2628 6.29707 22.4815C6.68343 22.6974 6.98031 22.983 7.18769 23.3381C7.39508 23.6932 7.49877 24.0767 7.49877 24.4886C7.49877 24.9801 7.36951 25.3991 7.11099 25.7457C6.85531 26.0923 6.5073 26.3324 6.06695 26.4659V26.5341C6.61809 26.625 7.04849 26.8594 7.35815 27.2372C7.66781 27.6122 7.82264 28.0767 7.82264 28.6307C7.82264 29.1051 7.69337 29.5312 7.43485 29.9091C7.17917 30.2841 6.82974 30.5795 6.38656 30.7955C5.94337 31.0114 5.43911 31.1193 4.87377 31.1193ZM12.4121 31.1193C11.7701 31.1193 11.2232 30.9446 10.7715 30.5952C10.3198 30.2429 9.97462 29.733 9.73599 29.0653C9.49735 28.3949 9.37803 27.5852 9.37803 26.6364C9.37803 25.6932 9.49735 24.8878 9.73599 24.2202C9.97747 23.5497 10.3241 23.0384 10.7758 22.6861C11.2303 22.331 11.7758 22.1534 12.4121 22.1534C13.0485 22.1534 13.5925 22.331 14.0442 22.6861C14.4988 23.0384 14.8454 23.5497 15.084 24.2202C15.3255 24.8878 15.4462 25.6932 15.4462 26.6364C15.4462 27.5852 15.3269 28.3949 15.0883 29.0653C14.8496 29.733 14.5045 30.2429 14.0527 30.5952C13.601 30.9446 13.0542 31.1193 12.4121 31.1193ZM12.4121 30.1818C13.0485 30.1818 13.5428 29.875 13.8951 29.2614C14.2474 28.6477 14.4235 27.7727 14.4235 26.6364C14.4235 25.8807 14.3425 25.2372 14.1806 24.706C14.0215 24.1747 13.7914 23.7699 13.4902 23.4915C13.192 23.2131 12.8326 23.0739 12.4121 23.0739C11.7814 23.0739 11.2885 23.3849 10.9334 24.0071C10.5783 24.6264 10.4008 25.5028 10.4008 26.6364C10.4008 27.392 10.4803 28.0341 10.6394 28.5625C10.7985 29.0909 11.0272 29.4929 11.3255 29.7685C11.6266 30.044 11.9888 30.1818 12.4121 30.1818ZM17.2189 31V22.2727H18.2758V26.6023H18.378L22.2985 22.2727H23.6792L20.0144 26.2102L23.6792 31H22.4008L19.3667 26.9432L18.2758 28.1705V31H17.2189Z" fill="#535353"/>
<path d="M43 107L365 107" stroke="#303030"/>
<path d="M42 67H365.158" stroke="#303030"/>
<path d="M43 28L365.158 27" stroke="#303030"/>
<g filter="url(#filter0_d_11_2)">
<path d="M44.5 105.5L80.182 77.9628C86.4536 73.1228 94.9909 72.4407 101.951 76.2236L129.294 91.0835C133.911 93.5931 139.331 94.1842 144.381 92.7291L191.148 79.254C194.013 78.4285 196.657 76.9727 198.887 74.9933L236.825 41.3179C238.918 39.46 241.378 38.0621 244.046 37.2145L291.506 22.1336C292.832 21.7123 294.198 21.4306 295.582 21.2928L330.365 17.8307C335.703 17.2993 341.032 18.9351 345.152 22.3705L364.5 38.5" stroke="#605BFF" stroke-width="3"/>
</g>
</g>
<defs>
<filter id="filter0_d_11_2" x="23.5836" y="-3.7677" width="381.877" height="150.455" filterUnits="userSpaceOnUse" color-interpolation-filters="sRGB">
<feFlood flood-opacity="0" result="BackgroundImageFix"/>
<feColorMatrix in="SourceAlpha" type="matrix" values="0 0 0 0 0 0 0 0 0 0 0 0 0 0 0 0 0 0 127 0" result="hardAlpha"/>
<feOffset dx="10" dy="10"/>
<feGaussianBlur stdDeviation="15"/>
<feColorMatrix type="matrix" values="0 0 0 0 0.376471 0 0 0 0 0.356863 0 0 0 0 1 0 0 0 1 0"/>
<feBlend mode="normal" in2="BackgroundImageFix" result="effect1_dropShadow_11_2"/>
<feBlend mode="normal" in="SourceGraphic" in2="effect1_dropShadow_11_2" result="shape"/>
</filter>
<clipPath id="clip0_11_2">
<rect width="368" height="152" fill="white"/>
</clipPath>
</defs>
</svg>
