<svg width="637" height="186" viewBox="0 0 637 186" fill="none" xmlns="http://www.w3.org/2000/svg">
<g clip-path="url(#clip0_6_19)">
<path d="M34 121H632" stroke="#303030"/>
<path d="M34 81H632" stroke="#303030"/>
<path d="M34 41H632" stroke="#303030"/>
<path d="M34 1H632" stroke="#303030"/>
<path d="M34 165H632" stroke="#303030"/>
<path d="M53.666 174.273H54.7228V180.511C54.7228 181.068 54.6205 181.541 54.416 181.93C54.2114 182.32 53.9231 182.615 53.5509 182.817C53.1787 183.018 52.7398 183.119 52.2341 183.119C51.7569 183.119 51.3321 183.033 50.96 182.859C50.5878 182.683 50.2952 182.433 50.0821 182.109C49.8691 181.786 49.7625 181.401 49.7625 180.955H50.8023C50.8023 181.202 50.8634 181.418 50.9856 181.602C51.1106 181.784 51.281 181.926 51.4969 182.028C51.7128 182.131 51.9586 182.182 52.2341 182.182C52.5381 182.182 52.7966 182.118 53.0097 181.99C53.2228 181.862 53.3847 181.675 53.4955 181.428C53.6091 181.178 53.666 180.872 53.666 180.511V174.273ZM58.6304 183.153C58.2157 183.153 57.8392 183.075 57.5012 182.919C57.1631 182.76 56.8946 182.531 56.6958 182.233C56.4969 181.932 56.3975 181.568 56.3975 181.142C56.3975 180.767 56.4714 180.463 56.6191 180.23C56.7668 179.994 56.9642 179.81 57.2114 179.676C57.4586 179.543 57.7313 179.443 58.0296 179.378C58.3307 179.31 58.6333 179.256 58.9373 179.216C59.335 179.165 59.6574 179.126 59.9046 179.101C60.1546 179.072 60.3364 179.026 60.45 178.96C60.5665 178.895 60.6248 178.781 60.6248 178.619V178.585C60.6248 178.165 60.5097 177.838 60.2796 177.605C60.0523 177.372 59.7071 177.256 59.2441 177.256C58.764 177.256 58.3875 177.361 58.1148 177.571C57.8421 177.781 57.6503 178.006 57.5395 178.244L56.585 177.903C56.7554 177.506 56.9827 177.196 57.2668 176.974C57.5537 176.75 57.8662 176.594 58.2043 176.506C58.5452 176.415 58.8804 176.369 59.21 176.369C59.4202 176.369 59.6617 176.395 59.9344 176.446C60.21 176.494 60.4756 176.595 60.7313 176.749C60.9898 176.902 61.2043 177.134 61.3748 177.443C61.5452 177.753 61.6304 178.168 61.6304 178.688V183H60.6248V182.114H60.5736C60.5054 182.256 60.3918 182.408 60.2327 182.57C60.0736 182.732 59.862 182.869 59.5978 182.983C59.3336 183.097 59.0111 183.153 58.6304 183.153ZM58.7839 182.25C59.1816 182.25 59.5168 182.172 59.7895 182.016C60.0651 181.859 60.2725 181.658 60.4117 181.411C60.5537 181.163 60.6248 180.903 60.6248 180.631V179.71C60.5821 179.761 60.4884 179.808 60.3435 179.851C60.2015 179.891 60.0367 179.926 59.8492 179.957C59.6645 179.986 59.4841 180.011 59.308 180.034C59.1347 180.054 58.9941 180.071 58.8861 180.085C58.6248 180.119 58.3804 180.175 58.1532 180.251C57.9287 180.325 57.7469 180.437 57.6077 180.588C57.4714 180.736 57.4032 180.937 57.4032 181.193C57.4032 181.543 57.5324 181.807 57.791 181.986C58.0523 182.162 58.3833 182.25 58.7839 182.25ZM64.4717 179.062V183H63.466V176.455H64.4376V177.477H64.5228C64.6763 177.145 64.9092 176.878 65.2217 176.676C65.5342 176.472 65.9376 176.369 66.4319 176.369C66.8751 176.369 67.2629 176.46 67.5953 176.642C67.9277 176.821 68.1862 177.094 68.3709 177.46C68.5555 177.824 68.6478 178.284 68.6478 178.841V183H67.6422V178.909C67.6422 178.395 67.5086 177.994 67.2416 177.707C66.9745 177.418 66.6081 177.273 66.1422 177.273C65.8211 177.273 65.5342 177.342 65.2814 177.482C65.0314 177.621 64.8339 177.824 64.689 178.091C64.5442 178.358 64.4717 178.682 64.4717 179.062Z" fill="#535353"/>
<path d="M99.8068 183V174.273H105.04V175.21H100.864V178.159H104.648V179.097H100.864V183H99.8068ZM108.977 183.136C108.347 183.136 107.803 182.997 107.345 182.719C106.891 182.438 106.54 182.045 106.293 181.543C106.048 181.037 105.926 180.449 105.926 179.778C105.926 179.108 106.048 178.517 106.293 178.006C106.54 177.491 106.884 177.091 107.324 176.804C107.767 176.514 108.284 176.369 108.875 176.369C109.216 176.369 109.553 176.426 109.885 176.54C110.217 176.653 110.52 176.838 110.793 177.094C111.065 177.347 111.283 177.682 111.445 178.099C111.607 178.517 111.688 179.031 111.688 179.642V180.068H106.642V179.199H110.665C110.665 178.83 110.591 178.5 110.443 178.21C110.298 177.92 110.091 177.692 109.821 177.524C109.554 177.357 109.239 177.273 108.875 177.273C108.474 177.273 108.128 177.372 107.835 177.571C107.545 177.767 107.322 178.023 107.166 178.338C107.01 178.653 106.932 178.991 106.932 179.352V179.932C106.932 180.426 107.017 180.845 107.188 181.189C107.361 181.53 107.601 181.79 107.908 181.969C108.214 182.145 108.571 182.233 108.977 182.233C109.241 182.233 109.48 182.196 109.693 182.122C109.909 182.045 110.095 181.932 110.251 181.781C110.408 181.628 110.528 181.437 110.614 181.21L111.585 181.483C111.483 181.812 111.311 182.102 111.07 182.352C110.828 182.599 110.53 182.793 110.175 182.932C109.82 183.068 109.42 183.136 108.977 183.136ZM113.354 183V174.273H114.359V177.494H114.445C114.518 177.381 114.621 177.236 114.751 177.06C114.885 176.881 115.075 176.722 115.322 176.582C115.572 176.44 115.911 176.369 116.337 176.369C116.888 176.369 117.374 176.507 117.794 176.783C118.214 177.058 118.543 177.449 118.778 177.955C119.014 178.46 119.132 179.057 119.132 179.744C119.132 180.438 119.014 181.038 118.778 181.547C118.543 182.053 118.216 182.445 117.798 182.723C117.381 182.999 116.899 183.136 116.354 183.136C115.933 183.136 115.597 183.067 115.344 182.928C115.091 182.786 114.896 182.625 114.76 182.446C114.624 182.264 114.518 182.114 114.445 181.994H114.325V183H113.354ZM114.342 179.727C114.342 180.222 114.415 180.658 114.56 181.036C114.705 181.411 114.916 181.705 115.195 181.918C115.473 182.128 115.814 182.233 116.217 182.233C116.638 182.233 116.989 182.122 117.27 181.901C117.554 181.676 117.767 181.375 117.909 180.997C118.054 180.616 118.126 180.193 118.126 179.727C118.126 179.267 118.055 178.852 117.913 178.483C117.774 178.111 117.563 177.817 117.278 177.601C116.997 177.382 116.643 177.273 116.217 177.273C115.808 177.273 115.464 177.376 115.186 177.584C114.908 177.788 114.697 178.075 114.555 178.445C114.413 178.811 114.342 179.239 114.342 179.727Z" fill="#535353"/>
<path d="M148.689 174.273H149.95L152.916 181.517H153.019L155.984 174.273H157.246V183H156.257V176.369H156.172L153.445 183H152.49L149.763 176.369H149.678V183H148.689V174.273ZM161.155 183.153C160.74 183.153 160.363 183.075 160.025 182.919C159.687 182.76 159.419 182.531 159.22 182.233C159.021 181.932 158.922 181.568 158.922 181.142C158.922 180.767 158.995 180.463 159.143 180.23C159.291 179.994 159.488 179.81 159.735 179.676C159.983 179.543 160.255 179.443 160.554 179.378C160.855 179.31 161.157 179.256 161.461 179.216C161.859 179.165 162.182 179.126 162.429 179.101C162.679 179.072 162.86 179.026 162.974 178.96C163.091 178.895 163.149 178.781 163.149 178.619V178.585C163.149 178.165 163.034 177.838 162.804 177.605C162.576 177.372 162.231 177.256 161.768 177.256C161.288 177.256 160.912 177.361 160.639 177.571C160.366 177.781 160.174 178.006 160.064 178.244L159.109 177.903C159.28 177.506 159.507 177.196 159.791 176.974C160.078 176.75 160.39 176.594 160.728 176.506C161.069 176.415 161.405 176.369 161.734 176.369C161.944 176.369 162.186 176.395 162.459 176.446C162.734 176.494 163 176.595 163.255 176.749C163.514 176.902 163.728 177.134 163.899 177.443C164.069 177.753 164.155 178.168 164.155 178.688V183H163.149V182.114H163.098C163.03 182.256 162.916 182.408 162.757 182.57C162.598 182.732 162.386 182.869 162.122 182.983C161.858 183.097 161.535 183.153 161.155 183.153ZM161.308 182.25C161.706 182.25 162.041 182.172 162.314 182.016C162.589 181.859 162.797 181.658 162.936 181.411C163.078 181.163 163.149 180.903 163.149 180.631V179.71C163.106 179.761 163.012 179.808 162.868 179.851C162.726 179.891 162.561 179.926 162.373 179.957C162.189 179.986 162.008 180.011 161.832 180.034C161.659 180.054 161.518 180.071 161.41 180.085C161.149 180.119 160.905 180.175 160.677 180.251C160.453 180.325 160.271 180.437 160.132 180.588C159.995 180.736 159.927 180.937 159.927 181.193C159.927 181.543 160.057 181.807 160.315 181.986C160.576 182.162 160.907 182.25 161.308 182.25ZM165.99 183V176.455H166.962V177.443H167.03C167.149 177.119 167.365 176.857 167.678 176.655C167.99 176.453 168.342 176.352 168.734 176.352C168.808 176.352 168.901 176.354 169.011 176.357C169.122 176.359 169.206 176.364 169.263 176.369V177.392C169.229 177.384 169.151 177.371 169.028 177.354C168.909 177.334 168.783 177.324 168.649 177.324C168.331 177.324 168.047 177.391 167.797 177.524C167.55 177.655 167.354 177.837 167.209 178.07C167.067 178.3 166.996 178.562 166.996 178.858V183H165.99Z" fill="#535353"/>
<path d="M199.888 183H198.78L201.985 174.273H203.076L206.28 183H205.172L202.564 175.653H202.496L199.888 183ZM200.297 179.591H204.763V180.528H200.297V179.591ZM207.503 185.455V176.455H208.475V177.494H208.594C208.668 177.381 208.77 177.236 208.901 177.06C209.034 176.881 209.225 176.722 209.472 176.582C209.722 176.44 210.06 176.369 210.486 176.369C211.037 176.369 211.523 176.507 211.943 176.783C212.364 177.058 212.692 177.449 212.928 177.955C213.164 178.46 213.282 179.057 213.282 179.744C213.282 180.438 213.164 181.038 212.928 181.547C212.692 182.053 212.365 182.445 211.948 182.723C211.53 182.999 211.049 183.136 210.503 183.136C210.083 183.136 209.746 183.067 209.493 182.928C209.24 182.786 209.046 182.625 208.909 182.446C208.773 182.264 208.668 182.114 208.594 181.994H208.509V185.455H207.503ZM208.492 179.727C208.492 180.222 208.564 180.658 208.709 181.036C208.854 181.411 209.066 181.705 209.344 181.918C209.622 182.128 209.963 182.233 210.367 182.233C210.787 182.233 211.138 182.122 211.419 181.901C211.703 181.676 211.916 181.375 212.059 180.997C212.203 180.616 212.276 180.193 212.276 179.727C212.276 179.267 212.205 178.852 212.063 178.483C211.924 178.111 211.712 177.817 211.428 177.601C211.147 177.382 210.793 177.273 210.367 177.273C209.958 177.273 209.614 177.376 209.336 177.584C209.057 177.788 208.847 178.075 208.705 178.445C208.563 178.811 208.492 179.239 208.492 179.727ZM214.816 183V176.455H215.787V177.443H215.855C215.975 177.119 216.191 176.857 216.503 176.655C216.816 176.453 217.168 176.352 217.56 176.352C217.634 176.352 217.726 176.354 217.837 176.357C217.948 176.359 218.032 176.364 218.088 176.369V177.392C218.054 177.384 217.976 177.371 217.854 177.354C217.735 177.334 217.608 177.324 217.475 177.324C217.157 177.324 216.872 177.391 216.622 177.524C216.375 177.655 216.179 177.837 216.034 178.07C215.892 178.3 215.821 178.562 215.821 178.858V183H214.816Z" fill="#535353"/>
<path d="M247.365 174.273H248.627L251.593 181.517H251.695L254.661 174.273H255.922V183H254.934V176.369H254.848L252.121 183H251.167L248.439 176.369H248.354V183H247.365V174.273ZM259.831 183.153C259.416 183.153 259.04 183.075 258.702 182.919C258.364 182.76 258.095 182.531 257.896 182.233C257.697 181.932 257.598 181.568 257.598 181.142C257.598 180.767 257.672 180.463 257.82 180.23C257.967 179.994 258.165 179.81 258.412 179.676C258.659 179.543 258.932 179.443 259.23 179.378C259.531 179.31 259.834 179.256 260.138 179.216C260.536 179.165 260.858 179.126 261.105 179.101C261.355 179.072 261.537 179.026 261.651 178.96C261.767 178.895 261.825 178.781 261.825 178.619V178.585C261.825 178.165 261.71 177.838 261.48 177.605C261.253 177.372 260.908 177.256 260.445 177.256C259.964 177.256 259.588 177.361 259.315 177.571C259.043 177.781 258.851 178.006 258.74 178.244L257.786 177.903C257.956 177.506 258.183 177.196 258.467 176.974C258.754 176.75 259.067 176.594 259.405 176.506C259.746 176.415 260.081 176.369 260.411 176.369C260.621 176.369 260.862 176.395 261.135 176.446C261.411 176.494 261.676 176.595 261.932 176.749C262.19 176.902 262.405 177.134 262.575 177.443C262.746 177.753 262.831 178.168 262.831 178.688V183H261.825V182.114H261.774C261.706 182.256 261.592 182.408 261.433 182.57C261.274 182.732 261.063 182.869 260.798 182.983C260.534 183.097 260.212 183.153 259.831 183.153ZM259.984 182.25C260.382 182.25 260.717 182.172 260.99 182.016C261.266 181.859 261.473 181.658 261.612 181.411C261.754 181.163 261.825 180.903 261.825 180.631V179.71C261.783 179.761 261.689 179.808 261.544 179.851C261.402 179.891 261.237 179.926 261.05 179.957C260.865 179.986 260.685 180.011 260.509 180.034C260.335 180.054 260.195 180.071 260.087 180.085C259.825 180.119 259.581 180.175 259.354 180.251C259.129 180.325 258.947 180.437 258.808 180.588C258.672 180.736 258.604 180.937 258.604 181.193C258.604 181.543 258.733 181.807 258.991 181.986C259.253 182.162 259.584 182.25 259.984 182.25ZM265.08 185.455C264.909 185.455 264.757 185.44 264.624 185.412C264.49 185.386 264.398 185.361 264.347 185.335L264.603 184.449C264.847 184.511 265.063 184.534 265.25 184.517C265.438 184.5 265.604 184.416 265.749 184.266C265.897 184.118 266.032 183.878 266.154 183.545L266.341 183.034L263.921 176.455H265.012L266.819 181.67H266.887L268.694 176.455H269.784L267.006 183.955C266.881 184.293 266.726 184.572 266.542 184.794C266.357 185.018 266.142 185.185 265.898 185.293C265.657 185.401 265.384 185.455 265.08 185.455Z" fill="#535353"/>
<path d="M302.727 174.273H303.784V180.511C303.784 181.068 303.682 181.541 303.477 181.93C303.273 182.32 302.984 182.615 302.612 182.817C302.24 183.018 301.801 183.119 301.295 183.119C300.818 183.119 300.393 183.033 300.021 182.859C299.649 182.683 299.356 182.433 299.143 182.109C298.93 181.786 298.824 181.401 298.824 180.955H299.864C299.864 181.202 299.925 181.418 300.047 181.602C300.172 181.784 300.342 181.926 300.558 182.028C300.774 182.131 301.02 182.182 301.295 182.182C301.599 182.182 301.858 182.118 302.071 181.99C302.284 181.862 302.446 181.675 302.557 181.428C302.67 181.178 302.727 180.872 302.727 180.511V174.273ZM309.891 180.324V176.455H310.896V183H309.891V181.892H309.822C309.669 182.224 309.43 182.507 309.106 182.74C308.783 182.97 308.373 183.085 307.879 183.085C307.47 183.085 307.106 182.996 306.788 182.817C306.47 182.635 306.22 182.362 306.038 181.999C305.856 181.632 305.766 181.17 305.766 180.614V176.455H306.771V180.545C306.771 181.023 306.905 181.403 307.172 181.688C307.442 181.972 307.785 182.114 308.203 182.114C308.453 182.114 308.707 182.05 308.966 181.922C309.227 181.794 309.446 181.598 309.622 181.334C309.801 181.07 309.891 180.733 309.891 180.324ZM313.744 179.062V183H312.738V176.455H313.71V177.477H313.795C313.948 177.145 314.181 176.878 314.494 176.676C314.806 176.472 315.21 176.369 315.704 176.369C316.147 176.369 316.535 176.46 316.867 176.642C317.2 176.821 317.458 177.094 317.643 177.46C317.828 177.824 317.92 178.284 317.92 178.841V183H316.914V178.909C316.914 178.395 316.781 177.994 316.514 177.707C316.247 177.418 315.88 177.273 315.414 177.273C315.093 177.273 314.806 177.342 314.554 177.482C314.304 177.621 314.106 177.824 313.961 178.091C313.816 178.358 313.744 178.682 313.744 179.062Z" fill="#535353"/>
<path d="M354.646 174.273H355.703V180.511C355.703 181.068 355.601 181.541 355.396 181.93C355.192 182.32 354.904 182.615 354.531 182.817C354.159 183.018 353.72 183.119 353.215 183.119C352.737 183.119 352.313 183.033 351.94 182.859C351.568 182.683 351.276 182.433 351.063 182.109C350.85 181.786 350.743 181.401 350.743 180.955H351.783C351.783 181.202 351.844 181.418 351.966 181.602C352.091 181.784 352.261 181.926 352.477 182.028C352.693 182.131 352.939 182.182 353.215 182.182C353.519 182.182 353.777 182.118 353.99 181.99C354.203 181.862 354.365 181.675 354.476 181.428C354.59 181.178 354.646 180.872 354.646 180.511V174.273ZM361.81 180.324V176.455H362.815V183H361.81V181.892H361.742C361.588 182.224 361.35 182.507 361.026 182.74C360.702 182.97 360.293 183.085 359.798 183.085C359.389 183.085 359.026 182.996 358.707 182.817C358.389 182.635 358.139 182.362 357.957 181.999C357.776 181.632 357.685 181.17 357.685 180.614V176.455H358.69V180.545C358.69 181.023 358.824 181.403 359.091 181.688C359.361 181.972 359.705 182.114 360.122 182.114C360.372 182.114 360.627 182.05 360.885 181.922C361.146 181.794 361.365 181.598 361.541 181.334C361.72 181.07 361.81 180.733 361.81 180.324ZM365.663 174.273V183H364.657V174.273H365.663Z" fill="#535353"/>
<path d="M397.968 183H396.86L400.064 174.273H401.155L404.36 183H403.252L400.644 175.653H400.575L397.968 183ZM398.377 179.591H402.843V180.528H398.377V179.591ZM409.708 180.324V176.455H410.713V183H409.708V181.892H409.639C409.486 182.224 409.247 182.507 408.923 182.74C408.6 182.97 408.191 183.085 407.696 183.085C407.287 183.085 406.923 182.996 406.605 182.817C406.287 182.635 406.037 182.362 405.855 181.999C405.673 181.632 405.583 181.17 405.583 180.614V176.455H406.588V180.545C406.588 181.023 406.722 181.403 406.989 181.688C407.259 181.972 407.602 182.114 408.02 182.114C408.27 182.114 408.524 182.05 408.783 181.922C409.044 181.794 409.263 181.598 409.439 181.334C409.618 181.07 409.708 180.733 409.708 180.324ZM415.197 185.591C414.711 185.591 414.294 185.528 413.944 185.403C413.595 185.281 413.304 185.119 413.071 184.918C412.841 184.719 412.657 184.506 412.521 184.278L413.322 183.716C413.413 183.835 413.528 183.972 413.667 184.125C413.807 184.281 413.997 184.416 414.238 184.53C414.483 184.646 414.802 184.705 415.197 184.705C415.726 184.705 416.162 184.577 416.506 184.321C416.849 184.065 417.021 183.665 417.021 183.119V181.79H416.936C416.862 181.909 416.757 182.057 416.621 182.233C416.487 182.406 416.294 182.561 416.041 182.697C415.791 182.831 415.453 182.898 415.027 182.898C414.498 182.898 414.024 182.773 413.604 182.523C413.186 182.273 412.855 181.909 412.611 181.432C412.369 180.955 412.248 180.375 412.248 179.693C412.248 179.023 412.366 178.439 412.602 177.942C412.838 177.442 413.166 177.055 413.586 176.783C414.007 176.507 414.493 176.369 415.044 176.369C415.47 176.369 415.808 176.44 416.058 176.582C416.311 176.722 416.504 176.881 416.638 177.06C416.774 177.236 416.879 177.381 416.953 177.494H417.055V176.455H418.027V183.188C418.027 183.75 417.899 184.207 417.643 184.56C417.39 184.915 417.05 185.175 416.621 185.339C416.194 185.507 415.72 185.591 415.197 185.591ZM415.163 181.994C415.567 181.994 415.907 181.902 416.186 181.717C416.464 181.533 416.676 181.267 416.821 180.92C416.966 180.574 417.038 180.159 417.038 179.676C417.038 179.205 416.967 178.788 416.825 178.428C416.683 178.067 416.473 177.784 416.194 177.58C415.916 177.375 415.572 177.273 415.163 177.273C414.737 177.273 414.382 177.381 414.098 177.597C413.817 177.812 413.605 178.102 413.463 178.466C413.324 178.83 413.254 179.233 413.254 179.676C413.254 180.131 413.325 180.533 413.467 180.882C413.612 181.229 413.825 181.501 414.106 181.7C414.39 181.896 414.743 181.994 415.163 181.994Z" fill="#535353"/>
<path d="M452.438 176.455C452.387 176.023 452.18 175.688 451.816 175.449C451.452 175.21 451.006 175.091 450.478 175.091C450.092 175.091 449.754 175.153 449.464 175.278C449.177 175.403 448.952 175.575 448.791 175.794C448.631 176.013 448.552 176.261 448.552 176.54C448.552 176.773 448.607 176.973 448.718 177.141C448.832 177.305 448.977 177.443 449.153 177.554C449.329 177.662 449.514 177.751 449.707 177.822C449.9 177.891 450.077 177.946 450.239 177.989L451.126 178.227C451.353 178.287 451.606 178.369 451.884 178.474C452.166 178.58 452.434 178.723 452.69 178.905C452.948 179.084 453.161 179.314 453.329 179.595C453.497 179.876 453.58 180.222 453.58 180.631C453.58 181.102 453.457 181.528 453.21 181.909C452.965 182.29 452.607 182.592 452.136 182.817C451.667 183.041 451.097 183.153 450.427 183.153C449.802 183.153 449.261 183.053 448.803 182.851C448.349 182.649 447.991 182.368 447.729 182.007C447.471 181.646 447.325 181.227 447.291 180.75H448.381C448.41 181.08 448.521 181.352 448.714 181.568C448.91 181.781 449.157 181.94 449.455 182.045C449.756 182.148 450.08 182.199 450.427 182.199C450.83 182.199 451.193 182.134 451.514 182.003C451.835 181.869 452.089 181.685 452.276 181.449C452.464 181.21 452.558 180.932 452.558 180.614C452.558 180.324 452.477 180.088 452.315 179.906C452.153 179.724 451.94 179.577 451.675 179.463C451.411 179.349 451.126 179.25 450.819 179.165L449.745 178.858C449.063 178.662 448.524 178.382 448.126 178.018C447.728 177.655 447.529 177.179 447.529 176.591C447.529 176.102 447.661 175.676 447.925 175.312C448.193 174.946 448.55 174.662 448.999 174.46C449.451 174.256 449.955 174.153 450.512 174.153C451.075 174.153 451.575 174.254 452.012 174.456C452.45 174.655 452.796 174.928 453.052 175.274C453.31 175.621 453.447 176.014 453.461 176.455H452.438ZM457.926 183.136C457.295 183.136 456.751 182.997 456.294 182.719C455.839 182.438 455.488 182.045 455.241 181.543C454.997 181.037 454.875 180.449 454.875 179.778C454.875 179.108 454.997 178.517 455.241 178.006C455.488 177.491 455.832 177.091 456.272 176.804C456.716 176.514 457.233 176.369 457.824 176.369C458.164 176.369 458.501 176.426 458.834 176.54C459.166 176.653 459.468 176.838 459.741 177.094C460.014 177.347 460.231 177.682 460.393 178.099C460.555 178.517 460.636 179.031 460.636 179.642V180.068H455.591V179.199H459.613C459.613 178.83 459.539 178.5 459.392 178.21C459.247 177.92 459.039 177.692 458.77 177.524C458.503 177.357 458.187 177.273 457.824 177.273C457.423 177.273 457.076 177.372 456.784 177.571C456.494 177.767 456.271 178.023 456.115 178.338C455.959 178.653 455.88 178.991 455.88 179.352V179.932C455.88 180.426 455.966 180.845 456.136 181.189C456.309 181.53 456.549 181.79 456.856 181.969C457.163 182.145 457.52 182.233 457.926 182.233C458.19 182.233 458.429 182.196 458.642 182.122C458.858 182.045 459.044 181.932 459.2 181.781C459.356 181.628 459.477 181.437 459.562 181.21L460.534 181.483C460.432 181.812 460.26 182.102 460.018 182.352C459.777 182.599 459.478 182.793 459.123 182.932C458.768 183.068 458.369 183.136 457.926 183.136ZM462.166 185.455V176.455H463.137V177.494H463.257C463.331 177.381 463.433 177.236 463.564 177.06C463.697 176.881 463.887 176.722 464.135 176.582C464.385 176.44 464.723 176.369 465.149 176.369C465.7 176.369 466.186 176.507 466.606 176.783C467.027 177.058 467.355 177.449 467.591 177.955C467.826 178.46 467.944 179.057 467.944 179.744C467.944 180.438 467.826 181.038 467.591 181.547C467.355 182.053 467.028 182.445 466.611 182.723C466.193 182.999 465.711 183.136 465.166 183.136C464.745 183.136 464.409 183.067 464.156 182.928C463.903 182.786 463.709 182.625 463.572 182.446C463.436 182.264 463.331 182.114 463.257 181.994H463.172V185.455H462.166ZM463.155 179.727C463.155 180.222 463.227 180.658 463.372 181.036C463.517 181.411 463.728 181.705 464.007 181.918C464.285 182.128 464.626 182.233 465.03 182.233C465.45 182.233 465.801 182.122 466.082 181.901C466.366 181.676 466.579 181.375 466.721 180.997C466.866 180.616 466.939 180.193 466.939 179.727C466.939 179.267 466.868 178.852 466.726 178.483C466.586 178.111 466.375 177.817 466.091 177.601C465.809 177.382 465.456 177.273 465.03 177.273C464.62 177.273 464.277 177.376 463.998 177.584C463.72 177.788 463.51 178.075 463.368 178.445C463.226 178.811 463.155 179.239 463.155 179.727Z" fill="#535353"/>
<path d="M506.236 178.636C506.236 179.557 506.069 180.352 505.737 181.023C505.405 181.693 504.949 182.21 504.369 182.574C503.79 182.938 503.128 183.119 502.383 183.119C501.639 183.119 500.977 182.938 500.398 182.574C499.818 182.21 499.362 181.693 499.03 181.023C498.697 180.352 498.531 179.557 498.531 178.636C498.531 177.716 498.697 176.92 499.03 176.25C499.362 175.58 499.818 175.062 500.398 174.699C500.977 174.335 501.639 174.153 502.383 174.153C503.128 174.153 503.79 174.335 504.369 174.699C504.949 175.062 505.405 175.58 505.737 176.25C506.069 176.92 506.236 177.716 506.236 178.636ZM505.213 178.636C505.213 177.881 505.086 177.243 504.834 176.723C504.584 176.203 504.244 175.81 503.815 175.543C503.389 175.276 502.912 175.142 502.383 175.142C501.855 175.142 501.376 175.276 500.947 175.543C500.521 175.81 500.182 176.203 499.929 176.723C499.679 177.243 499.554 177.881 499.554 178.636C499.554 179.392 499.679 180.03 499.929 180.55C500.182 181.07 500.521 181.463 500.947 181.73C501.376 181.997 501.855 182.131 502.383 182.131C502.912 182.131 503.389 181.997 503.815 181.73C504.244 181.463 504.584 181.07 504.834 180.55C505.086 180.03 505.213 179.392 505.213 178.636ZM510.535 183.136C509.922 183.136 509.393 182.991 508.95 182.702C508.507 182.412 508.166 182.013 507.927 181.504C507.689 180.996 507.569 180.415 507.569 179.761C507.569 179.097 507.692 178.51 507.936 178.001C508.183 177.49 508.527 177.091 508.967 176.804C509.41 176.514 509.927 176.369 510.518 176.369C510.978 176.369 511.393 176.455 511.763 176.625C512.132 176.795 512.434 177.034 512.67 177.341C512.906 177.648 513.052 178.006 513.109 178.415H512.103C512.027 178.116 511.856 177.852 511.592 177.622C511.331 177.389 510.978 177.273 510.535 177.273C510.143 177.273 509.799 177.375 509.504 177.58C509.211 177.781 508.983 178.067 508.818 178.436C508.656 178.803 508.575 179.233 508.575 179.727C508.575 180.233 508.655 180.673 508.814 181.048C508.976 181.423 509.203 181.714 509.496 181.922C509.791 182.129 510.138 182.233 510.535 182.233C510.797 182.233 511.034 182.188 511.247 182.097C511.46 182.006 511.64 181.875 511.788 181.705C511.936 181.534 512.041 181.33 512.103 181.091H513.109C513.052 181.477 512.912 181.825 512.687 182.135C512.466 182.442 512.172 182.686 511.805 182.868C511.442 183.047 511.018 183.136 510.535 183.136ZM517.426 176.455V177.307H514.034V176.455H517.426ZM515.023 174.886H516.028V181.125C516.028 181.409 516.069 181.622 516.152 181.764C516.237 181.903 516.345 181.997 516.476 182.045C516.609 182.091 516.75 182.114 516.898 182.114C517.008 182.114 517.099 182.108 517.17 182.097C517.241 182.082 517.298 182.071 517.341 182.062L517.545 182.966C517.477 182.991 517.382 183.017 517.26 183.043C517.138 183.071 516.983 183.085 516.795 183.085C516.511 183.085 516.233 183.024 515.96 182.902C515.69 182.78 515.466 182.594 515.287 182.344C515.111 182.094 515.023 181.778 515.023 181.398V174.886Z" fill="#535353"/>
<path d="M554.407 174.273V183H553.384L548.629 176.148H548.543V183H547.487V174.273H548.509L553.282 181.142H553.367V174.273H554.407ZM559.044 183.136C558.453 183.136 557.935 182.996 557.489 182.714C557.046 182.433 556.699 182.04 556.449 181.534C556.202 181.028 556.078 180.437 556.078 179.761C556.078 179.08 556.202 178.484 556.449 177.976C556.699 177.467 557.046 177.072 557.489 176.791C557.935 176.51 558.453 176.369 559.044 176.369C559.635 176.369 560.152 176.51 560.596 176.791C561.042 177.072 561.388 177.467 561.635 177.976C561.885 178.484 562.01 179.08 562.01 179.761C562.01 180.437 561.885 181.028 561.635 181.534C561.388 182.04 561.042 182.433 560.596 182.714C560.152 182.996 559.635 183.136 559.044 183.136ZM559.044 182.233C559.493 182.233 559.863 182.118 560.152 181.888C560.442 181.658 560.657 181.355 560.796 180.98C560.935 180.605 561.005 180.199 561.005 179.761C561.005 179.324 560.935 178.916 560.796 178.538C560.657 178.161 560.442 177.855 560.152 177.622C559.863 177.389 559.493 177.273 559.044 177.273C558.596 177.273 558.226 177.389 557.936 177.622C557.647 177.855 557.432 178.161 557.293 178.538C557.154 178.916 557.084 179.324 557.084 179.761C557.084 180.199 557.154 180.605 557.293 180.98C557.432 181.355 557.647 181.658 557.936 181.888C558.226 182.118 558.596 182.233 559.044 182.233ZM568.663 176.455L566.243 183H565.22L562.8 176.455H563.891L565.697 181.67H565.766L567.572 176.455H568.663Z" fill="#535353"/>
<path d="M600.177 183H597.484V174.273H600.296C601.143 174.273 601.867 174.447 602.47 174.797C603.072 175.143 603.534 175.642 603.855 176.293C604.176 176.94 604.336 177.716 604.336 178.619C604.336 179.528 604.174 180.311 603.85 180.967C603.526 181.621 603.055 182.124 602.436 182.476C601.816 182.825 601.063 183 600.177 183ZM598.541 182.062H600.109C600.83 182.062 601.428 181.923 601.903 181.645C602.377 181.366 602.731 180.97 602.964 180.456C603.197 179.942 603.313 179.33 603.313 178.619C603.313 177.915 603.198 177.308 602.968 176.8C602.738 176.288 602.394 175.896 601.937 175.624C601.48 175.348 600.91 175.21 600.228 175.21H598.541V182.062ZM608.717 183.136C608.086 183.136 607.542 182.997 607.085 182.719C606.63 182.438 606.279 182.045 606.032 181.543C605.788 181.037 605.666 180.449 605.666 179.778C605.666 179.108 605.788 178.517 606.032 178.006C606.279 177.491 606.623 177.091 607.063 176.804C607.507 176.514 608.024 176.369 608.615 176.369C608.955 176.369 609.292 176.426 609.625 176.54C609.957 176.653 610.259 176.838 610.532 177.094C610.805 177.347 611.022 177.682 611.184 178.099C611.346 178.517 611.427 179.031 611.427 179.642V180.068H606.382V179.199H610.404C610.404 178.83 610.33 178.5 610.183 178.21C610.038 177.92 609.83 177.692 609.561 177.524C609.294 177.357 608.978 177.273 608.615 177.273C608.214 177.273 607.867 177.372 607.575 177.571C607.285 177.767 607.062 178.023 606.906 178.338C606.75 178.653 606.671 178.991 606.671 179.352V179.932C606.671 180.426 606.757 180.845 606.927 181.189C607.1 181.53 607.34 181.79 607.647 181.969C607.954 182.145 608.311 182.233 608.717 182.233C608.981 182.233 609.22 182.196 609.433 182.122C609.649 182.045 609.835 181.932 609.991 181.781C610.147 181.628 610.268 181.437 610.353 181.21L611.325 181.483C611.223 181.812 611.051 182.102 610.809 182.352C610.568 182.599 610.269 182.793 609.914 182.932C609.559 183.068 609.16 183.136 608.717 183.136ZM615.616 183.136C615.002 183.136 614.474 182.991 614.031 182.702C613.588 182.412 613.247 182.013 613.008 181.504C612.769 180.996 612.65 180.415 612.65 179.761C612.65 179.097 612.772 178.51 613.017 178.001C613.264 177.49 613.607 177.091 614.048 176.804C614.491 176.514 615.008 176.369 615.599 176.369C616.059 176.369 616.474 176.455 616.843 176.625C617.213 176.795 617.515 177.034 617.751 177.341C617.987 177.648 618.133 178.006 618.19 178.415H617.184C617.107 178.116 616.937 177.852 616.673 177.622C616.411 177.389 616.059 177.273 615.616 177.273C615.224 177.273 614.88 177.375 614.585 177.58C614.292 177.781 614.063 178.067 613.899 178.436C613.737 178.803 613.656 179.233 613.656 179.727C613.656 180.233 613.735 180.673 613.894 181.048C614.056 181.423 614.284 181.714 614.576 181.922C614.872 182.129 615.218 182.233 615.616 182.233C615.877 182.233 616.115 182.188 616.328 182.097C616.541 182.006 616.721 181.875 616.869 181.705C617.017 181.534 617.122 181.33 617.184 181.091H618.19C618.133 181.477 617.992 181.825 617.768 182.135C617.546 182.442 617.252 182.686 616.886 182.868C616.522 183.047 616.099 183.136 615.616 183.136Z" fill="#535353"/>
<path d="M12.5018 165.119C12.0018 165.119 11.5515 165.02 11.1509 164.821C10.7504 164.622 10.4293 164.349 10.1879 164.003C9.94638 163.656 9.81428 163.261 9.79155 162.818H10.8143C10.854 163.213 11.033 163.54 11.3512 163.798C11.6722 164.054 12.0558 164.182 12.5018 164.182C12.8597 164.182 13.1779 164.098 13.4563 163.93C13.7376 163.763 13.9577 163.533 14.1168 163.24C14.2788 162.945 14.3597 162.611 14.3597 162.239C14.3597 161.858 14.2759 161.518 14.1083 161.22C13.9435 160.919 13.7163 160.682 13.4265 160.509C13.1367 160.335 12.8058 160.247 12.4336 160.244C12.1665 160.241 11.8924 160.283 11.6112 160.368C11.3299 160.45 11.0984 160.557 10.9165 160.688L9.92791 160.568L10.4563 156.273H14.9904V157.21H11.3427L11.0359 159.784H11.087C11.266 159.642 11.4904 159.524 11.7603 159.43C12.0302 159.337 12.3114 159.29 12.604 159.29C13.1381 159.29 13.614 159.418 14.0316 159.673C14.4521 159.926 14.7816 160.273 15.0202 160.713C15.2617 161.153 15.3825 161.656 15.3825 162.222C15.3825 162.778 15.2575 163.276 15.0075 163.713C14.7603 164.148 14.4194 164.491 13.9847 164.744C13.5501 164.994 13.0558 165.119 12.5018 165.119ZM17.2287 165V156.273H18.2855V160.602H18.3878L22.3082 156.273H23.6889L20.0241 160.21L23.6889 165H22.4105L19.3764 160.943L18.2855 162.17V165H17.2287Z" fill="#535353"/>
<path d="M7.06534 116.273V125H6.00852V117.381H5.95739L3.8267 118.795V117.722L6.00852 116.273H7.06534ZM12.4219 125.119C11.7798 125.119 11.233 124.945 10.7812 124.595C10.3295 124.243 9.98438 123.733 9.74574 123.065C9.5071 122.395 9.38778 121.585 9.38778 120.636C9.38778 119.693 9.5071 118.888 9.74574 118.22C9.98722 117.55 10.3338 117.038 10.7855 116.686C11.2401 116.331 11.7855 116.153 12.4219 116.153C13.0582 116.153 13.6023 116.331 14.054 116.686C14.5085 117.038 14.8551 117.55 15.0938 118.22C15.3352 118.888 15.456 119.693 15.456 120.636C15.456 121.585 15.3366 122.395 15.098 123.065C14.8594 123.733 14.5142 124.243 14.0625 124.595C13.6108 124.945 13.0639 125.119 12.4219 125.119ZM12.4219 124.182C13.0582 124.182 13.5526 123.875 13.9048 123.261C14.2571 122.648 14.4332 121.773 14.4332 120.636C14.4332 119.881 14.3523 119.237 14.1903 118.706C14.0313 118.175 13.8011 117.77 13.5 117.491C13.2017 117.213 12.8423 117.074 12.4219 117.074C11.7912 117.074 11.2983 117.385 10.9432 118.007C10.5881 118.626 10.4105 119.503 10.4105 120.636C10.4105 121.392 10.4901 122.034 10.6491 122.562C10.8082 123.091 11.0369 123.493 11.3352 123.768C11.6364 124.044 11.9986 124.182 12.4219 124.182ZM17.2287 125V116.273H18.2855V120.602H18.3878L22.3082 116.273H23.6889L20.0241 120.21L23.6889 125H22.4105L19.3764 120.943L18.2855 122.17V125H17.2287Z" fill="#535353"/>
<path d="M2.30966 85V84.233L5.19034 81.0795C5.52841 80.7102 5.80682 80.3892 6.02557 80.1165C6.24432 79.8409 6.40625 79.5824 6.51136 79.3409C6.61932 79.0966 6.6733 78.8409 6.6733 78.5739C6.6733 78.267 6.59943 78.0014 6.4517 77.777C6.30682 77.5526 6.10795 77.3793 5.85511 77.2571C5.60227 77.1349 5.31818 77.0739 5.00284 77.0739C4.66761 77.0739 4.375 77.1435 4.125 77.2827C3.87784 77.419 3.68608 77.6108 3.54972 77.858C3.41619 78.1051 3.34943 78.3949 3.34943 78.7273H2.34375C2.34375 78.2159 2.46165 77.767 2.69744 77.3807C2.93324 76.9943 3.25426 76.6932 3.66051 76.4773C4.0696 76.2614 4.52841 76.1534 5.03693 76.1534C5.5483 76.1534 6.00142 76.2614 6.39631 76.4773C6.79119 76.6932 7.10085 76.9844 7.32528 77.3509C7.54972 77.7173 7.66193 78.125 7.66193 78.5739C7.66193 78.8949 7.60369 79.2088 7.48722 79.5156C7.37358 79.8196 7.17472 80.1591 6.89062 80.5341C6.60938 80.9062 6.21875 81.3608 5.71875 81.8977L3.75852 83.9943V84.0625H7.81534V85H2.30966ZM12.4219 85.1193C11.7798 85.1193 11.233 84.9446 10.7812 84.5952C10.3295 84.2429 9.98438 83.733 9.74574 83.0653C9.5071 82.3949 9.38778 81.5852 9.38778 80.6364C9.38778 79.6932 9.5071 78.8878 9.74574 78.2202C9.98722 77.5497 10.3338 77.0384 10.7855 76.6861C11.2401 76.331 11.7855 76.1534 12.4219 76.1534C13.0582 76.1534 13.6023 76.331 14.054 76.6861C14.5085 77.0384 14.8551 77.5497 15.0938 78.2202C15.3352 78.8878 15.456 79.6932 15.456 80.6364C15.456 81.5852 15.3366 82.3949 15.098 83.0653C14.8594 83.733 14.5142 84.2429 14.0625 84.5952C13.6108 84.9446 13.0639 85.1193 12.4219 85.1193ZM12.4219 84.1818C13.0582 84.1818 13.5526 83.875 13.9048 83.2614C14.2571 82.6477 14.4332 81.7727 14.4332 80.6364C14.4332 79.8807 14.3523 79.2372 14.1903 78.706C14.0313 78.1747 13.8011 77.7699 13.5 77.4915C13.2017 77.2131 12.8423 77.0739 12.4219 77.0739C11.7912 77.0739 11.2983 77.3849 10.9432 78.0071C10.5881 78.6264 10.4105 79.5028 10.4105 80.6364C10.4105 81.392 10.4901 82.0341 10.6491 82.5625C10.8082 83.0909 11.0369 83.4929 11.3352 83.7685C11.6364 84.044 11.9986 84.1818 12.4219 84.1818ZM17.2287 85V76.2727H18.2855V80.6023H18.3878L22.3082 76.2727H23.6889L20.0241 80.2102L23.6889 85H22.4105L19.3764 80.9432L18.2855 82.1705V85H17.2287Z" fill="#535353"/>
<path d="M4.88352 45.1193C4.32102 45.1193 3.8196 45.0227 3.37926 44.8295C2.94176 44.6364 2.59375 44.3679 2.33523 44.0241C2.07955 43.6776 1.94034 43.2756 1.91761 42.8182H2.99148C3.0142 43.0994 3.1108 43.3423 3.28125 43.5469C3.4517 43.7486 3.67472 43.9048 3.95028 44.0156C4.22585 44.1264 4.53125 44.1818 4.86648 44.1818C5.24148 44.1818 5.57386 44.1165 5.86364 43.9858C6.15341 43.8551 6.38068 43.6733 6.54545 43.4403C6.71023 43.2074 6.79261 42.9375 6.79261 42.6307C6.79261 42.3097 6.71307 42.027 6.55398 41.7827C6.39489 41.5355 6.16193 41.3423 5.85511 41.2031C5.5483 41.0639 5.1733 40.9943 4.73011 40.9943H4.03125V40.0568H4.73011C5.0767 40.0568 5.38068 39.9943 5.64205 39.8693C5.90625 39.7443 6.11222 39.5682 6.25994 39.3409C6.41051 39.1136 6.4858 38.8466 6.4858 38.5398C6.4858 38.2443 6.42045 37.9872 6.28977 37.7685C6.15909 37.5497 5.97443 37.3793 5.7358 37.2571C5.5 37.1349 5.22159 37.0739 4.90057 37.0739C4.59943 37.0739 4.31534 37.1293 4.0483 37.2401C3.78409 37.348 3.56818 37.5057 3.40057 37.7131C3.23295 37.9176 3.14205 38.1648 3.12784 38.4545H2.10511C2.12216 37.9972 2.25994 37.5966 2.51847 37.2528C2.77699 36.9062 3.11506 36.6364 3.53267 36.4432C3.95313 36.25 4.41477 36.1534 4.91761 36.1534C5.45739 36.1534 5.92045 36.2628 6.30682 36.4815C6.69318 36.6974 6.99006 36.983 7.19744 37.3381C7.40483 37.6932 7.50852 38.0767 7.50852 38.4886C7.50852 38.9801 7.37926 39.3991 7.12074 39.7457C6.86506 40.0923 6.51705 40.3324 6.0767 40.4659V40.5341C6.62784 40.625 7.05824 40.8594 7.3679 41.2372C7.67756 41.6122 7.83239 42.0767 7.83239 42.6307C7.83239 43.1051 7.70313 43.5312 7.4446 43.9091C7.18892 44.2841 6.83949 44.5795 6.39631 44.7955C5.95313 45.0114 5.44886 45.1193 4.88352 45.1193ZM12.4219 45.1193C11.7798 45.1193 11.233 44.9446 10.7812 44.5952C10.3295 44.2429 9.98438 43.733 9.74574 43.0653C9.5071 42.3949 9.38778 41.5852 9.38778 40.6364C9.38778 39.6932 9.5071 38.8878 9.74574 38.2202C9.98722 37.5497 10.3338 37.0384 10.7855 36.6861C11.2401 36.331 11.7855 36.1534 12.4219 36.1534C13.0582 36.1534 13.6023 36.331 14.054 36.6861C14.5085 37.0384 14.8551 37.5497 15.0938 38.2202C15.3352 38.8878 15.456 39.6932 15.456 40.6364C15.456 41.5852 15.3366 42.3949 15.098 43.0653C14.8594 43.733 14.5142 44.2429 14.0625 44.5952C13.6108 44.9446 13.0639 45.1193 12.4219 45.1193ZM12.4219 44.1818C13.0582 44.1818 13.5526 43.875 13.9048 43.2614C14.2571 42.6477 14.4332 41.7727 14.4332 40.6364C14.4332 39.8807 14.3523 39.2372 14.1903 38.706C14.0313 38.1747 13.8011 37.7699 13.5 37.4915C13.2017 37.2131 12.8423 37.0739 12.4219 37.0739C11.7912 37.0739 11.2983 37.3849 10.9432 38.0071C10.5881 38.6264 10.4105 39.5028 10.4105 40.6364C10.4105 41.392 10.4901 42.0341 10.6491 42.5625C10.8082 43.0909 11.0369 43.4929 11.3352 43.7685C11.6364 44.044 11.9986 44.1818 12.4219 44.1818ZM17.2287 45V36.2727H18.2855V40.6023H18.3878L22.3082 36.2727H23.6889L20.0241 40.2102L23.6889 45H22.4105L19.3764 40.9432L18.2855 42.1705V45H17.2287Z" fill="#535353"/>
<path d="M1.67152 7.41024V6.54092L5.50675 0.472739H6.13743V1.81933H5.71129L2.81357 6.40456V6.47274H7.97834V7.41024H1.67152ZM5.77947 9.20001V7.14603V6.74121V0.472739H6.78516V9.20001H5.77947ZM12.4219 9.31933C11.7798 9.31933 11.233 9.14461 10.7812 8.79518C10.3295 8.44291 9.98438 7.93297 9.74574 7.26535C9.5071 6.5949 9.38778 5.78524 9.38778 4.83638C9.38778 3.89319 9.5071 3.0878 9.74574 2.42018C9.98722 1.74973 10.3338 1.23836 10.7855 0.886091C11.2401 0.530978 11.7855 0.353421 12.4219 0.353421C13.0582 0.353421 13.6023 0.530978 14.054 0.886091C14.5085 1.23836 14.8551 1.74973 15.0938 2.42018C15.3352 3.0878 15.456 3.89319 15.456 4.83638C15.456 5.78524 15.3366 6.5949 15.098 7.26535C14.8594 7.93297 14.5142 8.44291 14.0625 8.79518C13.6108 9.14461 13.0639 9.31933 12.4219 9.31933ZM12.4219 8.38183C13.0582 8.38183 13.5526 8.07501 13.9048 7.46138C14.2571 6.84774 14.4332 5.97274 14.4332 4.83638C14.4332 4.08069 14.3523 3.43723 14.1903 2.90598C14.0313 2.37473 13.8011 1.9699 13.5 1.69149C13.2017 1.41308 12.8423 1.27388 12.4219 1.27388C11.7912 1.27388 11.2983 1.58496 10.9432 2.20711C10.5881 2.82643 10.4105 3.70285 10.4105 4.83638C10.4105 5.59206 10.4901 6.2341 10.6491 6.76251C10.8082 7.29092 11.0369 7.69291 11.3352 7.96848C11.6364 8.24405 11.9986 8.38183 12.4219 8.38183ZM17.2287 9.20001V0.472739H18.2855V4.80228H18.3878L22.3082 0.472739H23.6889L20.0241 4.41024L23.6889 9.20001H22.4105L19.3764 5.14319L18.2855 6.37047V9.20001H17.2287Z" fill="#535353"/>
<path d="M48.9833 125C48.9833 122.239 51.2219 120 53.9833 120V120C56.7448 120 58.9833 122.239 58.9833 125V165H48.9833V125Z" fill="#605BFF"/>
<path d="M98.8167 40C98.8167 37.2386 101.055 35 103.817 35V35C106.578 35 108.817 37.2386 108.817 40V165H98.8167V40Z" fill="#605BFF"/>
<path d="M148.65 50C148.65 47.2386 150.889 45 153.65 45V45C156.411 45 158.65 47.2386 158.65 50V165H148.65V50Z" fill="#605BFF"/>
<path d="M198.483 100C198.483 97.2386 200.722 95 203.483 95V95C206.245 95 208.483 97.2386 208.483 100V165H198.483V100Z" fill="#605BFF"/>
<path d="M248.317 95C248.317 92.2386 250.555 90 253.317 90V90C256.078 90 258.317 92.2386 258.317 95V165H248.317V95Z" fill="#605BFF"/>
<path d="M298.15 35C298.15 32.2386 300.389 30 303.15 30V30C305.911 30 308.15 32.2386 308.15 35V165H298.15V35Z" fill="#605BFF"/>
<path d="M347.983 60C347.983 57.2386 350.222 55 352.983 55V55C355.745 55 357.983 57.2386 357.983 60V165H347.983V60Z" fill="#605BFF"/>
<path d="M397.817 35C397.817 32.2386 400.055 30 402.817 30V30C405.578 30 407.817 32.2386 407.817 35V165H397.817V35Z" fill="#605BFF"/>
<path d="M447.65 130C447.65 127.239 449.889 125 452.65 125V125C455.411 125 457.65 127.239 457.65 130V165H447.65V130Z" fill="#605BFF"/>
<path d="M497.483 105C497.483 102.239 499.722 100 502.483 100V100C505.245 100 507.483 102.239 507.483 105V165H497.483V105Z" fill="#605BFF"/>
<path d="M547.317 85C547.317 82.2386 549.555 80 552.317 80V80C555.078 80 557.317 82.2386 557.317 85V165H547.317V85Z" fill="#605BFF"/>
<path d="M597.15 125C597.15 122.239 599.389 120 602.15 120V120C604.911 120 607.15 122.239 607.15 125V165H597.15V125Z" fill="#605BFF"/>
<path d="M59.9833 115C59.9833 112.239 62.2219 110 64.9833 110V110C67.7448 110 69.9833 112.239 69.9833 115V165H59.9833V115Z" fill="#FE47F7"/>
<path d="M109.817 85C109.817 82.2386 112.055 80 114.817 80V80C117.578 80 119.817 82.2386 119.817 85V165H109.817V85Z" fill="#FE47F7"/>
<path d="M159.65 130C159.65 127.239 161.889 125 164.65 125V125C167.411 125 169.65 127.239 169.65 130V165H159.65V130Z" fill="#FE47F7"/>
<path d="M209.483 105C209.483 102.239 211.722 100 214.483 100V100C217.245 100 219.483 102.239 219.483 105V165H209.483V105Z" fill="#FE47F7"/>
<path d="M259.317 25C259.317 22.2386 261.555 20 264.317 20V20C267.078 20 269.317 22.2386 269.317 25V165H259.317V25Z" fill="#FE47F7"/>
<path d="M309.15 65C309.15 62.2386 311.389 60 314.15 60V60C316.911 60 319.15 62.2386 319.15 65V165H309.15V65Z" fill="#FE47F7"/>
<path d="M358.983 110C358.983 107.239 361.222 105 363.983 105V105C366.745 105 368.983 107.239 368.983 110V165H358.983V110Z" fill="#FE47F7"/>
<path d="M408.817 60C408.817 57.2386 411.055 55 413.817 55V55C416.578 55 418.817 57.2386 418.817 60V165H408.817V60Z" fill="#FE47F7"/>
<path d="M458.65 50C458.65 47.2386 460.889 45 463.65 45V45C466.411 45 468.65 47.2386 468.65 50V165H458.65V50Z" fill="#FE47F7"/>
<path d="M508.483 90C508.483 87.2386 510.722 85 513.483 85V85C516.245 85 518.483 87.2386 518.483 90V165H508.483V90Z" fill="#FE47F7"/>
<path d="M558.317 115C558.317 112.239 560.555 110 563.317 110V110C566.078 110 568.317 112.239 568.317 115V165H558.317V115Z" fill="#FE47F7"/>
<path d="M608.15 115C608.15 112.239 610.389 110 613.15 110V110C615.911 110 618.15 112.239 618.15 115V165H608.15V115Z" fill="#FE47F7"/>
</g>
<defs>
<clipPath id="clip0_6_19">
<rect width="637" height="186" fill="white"/>
</clipPath>
</defs>
</svg>
