<svg width="668" height="200" viewBox="0 0 668 200" fill="none" xmlns="http://www.w3.org/2000/svg">
<g clip-path="url(#clip0_6_19)">
<path d="M65 121H663" stroke="#E0E0E0"/>
<path d="M65 81H663" stroke="#E0E0E0"/>
<path d="M65 41H663" stroke="#E0E0E0"/>
<path d="M65 1H663" stroke="#E0E0E0"/>
<path d="M65 165H663" stroke="#E0E0E0"/>
<path d="M84.666 174.273H85.7228V180.511C85.7228 181.068 85.6205 181.541 85.416 181.93C85.2114 182.32 84.9231 182.615 84.5509 182.817C84.1787 183.018 83.7398 183.119 83.2341 183.119C82.7569 183.119 82.3321 183.033 81.96 182.859C81.5878 182.683 81.2952 182.433 81.0821 182.109C80.8691 181.786 80.7625 181.401 80.7625 180.955H81.8023C81.8023 181.202 81.8634 181.418 81.9856 181.602C82.1106 181.784 82.281 181.926 82.4969 182.028C82.7128 182.131 82.9586 182.182 83.2341 182.182C83.5381 182.182 83.7966 182.118 84.0097 181.99C84.2228 181.862 84.3847 181.675 84.4955 181.428C84.6091 181.178 84.666 180.872 84.666 180.511V174.273ZM89.6304 183.153C89.2157 183.153 88.8392 183.075 88.5012 182.919C88.1631 182.76 87.8946 182.531 87.6958 182.233C87.4969 181.932 87.3975 181.568 87.3975 181.142C87.3975 180.767 87.4714 180.463 87.6191 180.23C87.7668 179.994 87.9642 179.81 88.2114 179.676C88.4586 179.543 88.7313 179.443 89.0296 179.378C89.3307 179.31 89.6333 179.256 89.9373 179.216C90.335 179.165 90.6574 179.126 90.9046 179.101C91.1546 179.072 91.3364 179.026 91.45 178.96C91.5665 178.895 91.6248 178.781 91.6248 178.619V178.585C91.6248 178.165 91.5097 177.838 91.2796 177.605C91.0523 177.372 90.7071 177.256 90.2441 177.256C89.764 177.256 89.3875 177.361 89.1148 177.571C88.8421 177.781 88.6503 178.006 88.5395 178.244L87.585 177.903C87.7554 177.506 87.9827 177.196 88.2668 176.974C88.5537 176.75 88.8662 176.594 89.2043 176.506C89.5452 176.415 89.8804 176.369 90.21 176.369C90.4202 176.369 90.6617 176.395 90.9344 176.446C91.21 176.494 91.4756 176.595 91.7313 176.749C91.9898 176.902 92.2043 177.134 92.3748 177.443C92.5452 177.753 92.6304 178.168 92.6304 178.688V183H91.6248V182.114H91.5736C91.5054 182.256 91.3918 182.408 91.2327 182.57C91.0736 182.732 90.862 182.869 90.5978 182.983C90.3336 183.097 90.0111 183.153 89.6304 183.153ZM89.7839 182.25C90.1816 182.25 90.5168 182.172 90.7895 182.016C91.0651 181.859 91.2725 181.658 91.4117 181.411C91.5537 181.163 91.6248 180.903 91.6248 180.631V179.71C91.5821 179.761 91.4884 179.808 91.3435 179.851C91.2015 179.891 91.0367 179.926 90.8492 179.957C90.6645 179.986 90.4841 180.011 90.308 180.034C90.1347 180.054 89.9941 180.071 89.8861 180.085C89.6248 180.119 89.3804 180.175 89.1532 180.251C88.9287 180.325 88.7469 180.437 88.6077 180.588C88.4714 180.736 88.4032 180.937 88.4032 181.193C88.4032 181.543 88.5324 181.807 88.791 181.986C89.0523 182.162 89.3833 182.25 89.7839 182.25ZM95.4717 179.062V183H94.466V176.455H95.4376V177.477H95.5228C95.6763 177.145 95.9092 176.878 96.2217 176.676C96.5342 176.472 96.9376 176.369 97.4319 176.369C97.8751 176.369 98.2629 176.46 98.5953 176.642C98.9277 176.821 99.1862 177.094 99.3709 177.46C99.5555 177.824 99.6478 178.284 99.6478 178.841V183H98.6422V178.909C98.6422 178.395 98.5086 177.994 98.2416 177.707C97.9745 177.418 97.6081 177.273 97.1422 177.273C96.8211 177.273 96.5342 177.342 96.2814 177.482C96.0314 177.621 95.8339 177.824 95.689 178.091C95.5442 178.358 95.4717 178.682 95.4717 179.062Z" fill="#9F9F9F"/>
<path d="M130.807 183V174.273H136.04V175.21H131.864V178.159H135.648V179.097H131.864V183H130.807ZM139.977 183.136C139.347 183.136 138.803 182.997 138.345 182.719C137.891 182.438 137.54 182.045 137.293 181.543C137.048 181.037 136.926 180.449 136.926 179.778C136.926 179.108 137.048 178.517 137.293 178.006C137.54 177.491 137.884 177.091 138.324 176.804C138.767 176.514 139.284 176.369 139.875 176.369C140.216 176.369 140.553 176.426 140.885 176.54C141.217 176.653 141.52 176.838 141.793 177.094C142.065 177.347 142.283 177.682 142.445 178.099C142.607 178.517 142.688 179.031 142.688 179.642V180.068H137.642V179.199H141.665C141.665 178.83 141.591 178.5 141.443 178.21C141.298 177.92 141.091 177.692 140.821 177.524C140.554 177.357 140.239 177.273 139.875 177.273C139.474 177.273 139.128 177.372 138.835 177.571C138.545 177.767 138.322 178.023 138.166 178.338C138.01 178.653 137.932 178.991 137.932 179.352V179.932C137.932 180.426 138.017 180.845 138.188 181.189C138.361 181.53 138.601 181.79 138.908 181.969C139.214 182.145 139.571 182.233 139.977 182.233C140.241 182.233 140.48 182.196 140.693 182.122C140.909 182.045 141.095 181.932 141.251 181.781C141.408 181.628 141.528 181.437 141.614 181.21L142.585 181.483C142.483 181.812 142.311 182.102 142.07 182.352C141.828 182.599 141.53 182.793 141.175 182.932C140.82 183.068 140.42 183.136 139.977 183.136ZM144.354 183V174.273H145.359V177.494H145.445C145.518 177.381 145.621 177.236 145.751 177.06C145.885 176.881 146.075 176.722 146.322 176.582C146.572 176.44 146.911 176.369 147.337 176.369C147.888 176.369 148.374 176.507 148.794 176.783C149.214 177.058 149.543 177.449 149.778 177.955C150.014 178.46 150.132 179.057 150.132 179.744C150.132 180.438 150.014 181.038 149.778 181.547C149.543 182.053 149.216 182.445 148.798 182.723C148.381 182.999 147.899 183.136 147.354 183.136C146.933 183.136 146.597 183.067 146.344 182.928C146.091 182.786 145.896 182.625 145.76 182.446C145.624 182.264 145.518 182.114 145.445 181.994H145.325V183H144.354ZM145.342 179.727C145.342 180.222 145.415 180.658 145.56 181.036C145.705 181.411 145.916 181.705 146.195 181.918C146.473 182.128 146.814 182.233 147.217 182.233C147.638 182.233 147.989 182.122 148.27 181.901C148.554 181.676 148.767 181.375 148.909 180.997C149.054 180.616 149.126 180.193 149.126 179.727C149.126 179.267 149.055 178.852 148.913 178.483C148.774 178.111 148.563 177.817 148.278 177.601C147.997 177.382 147.643 177.273 147.217 177.273C146.808 177.273 146.464 177.376 146.186 177.584C145.908 177.788 145.697 178.075 145.555 178.445C145.413 178.811 145.342 179.239 145.342 179.727Z" fill="#9F9F9F"/>
<path d="M179.689 174.273H180.95L183.916 181.517H184.019L186.984 174.273H188.246V183H187.257V176.369H187.172L184.445 183H183.49L180.763 176.369H180.678V183H179.689V174.273ZM192.155 183.153C191.74 183.153 191.363 183.075 191.025 182.919C190.687 182.76 190.419 182.531 190.22 182.233C190.021 181.932 189.922 181.568 189.922 181.142C189.922 180.767 189.995 180.463 190.143 180.23C190.291 179.994 190.488 179.81 190.735 179.676C190.983 179.543 191.255 179.443 191.554 179.378C191.855 179.31 192.157 179.256 192.461 179.216C192.859 179.165 193.182 179.126 193.429 179.101C193.679 179.072 193.86 179.026 193.974 178.96C194.091 178.895 194.149 178.781 194.149 178.619V178.585C194.149 178.165 194.034 177.838 193.804 177.605C193.576 177.372 193.231 177.256 192.768 177.256C192.288 177.256 191.912 177.361 191.639 177.571C191.366 177.781 191.174 178.006 191.064 178.244L190.109 177.903C190.28 177.506 190.507 177.196 190.791 176.974C191.078 176.75 191.39 176.594 191.728 176.506C192.069 176.415 192.405 176.369 192.734 176.369C192.944 176.369 193.186 176.395 193.459 176.446C193.734 176.494 194 176.595 194.255 176.749C194.514 176.902 194.728 177.134 194.899 177.443C195.069 177.753 195.155 178.168 195.155 178.688V183H194.149V182.114H194.098C194.03 182.256 193.916 182.408 193.757 182.57C193.598 182.732 193.386 182.869 193.122 182.983C192.858 183.097 192.535 183.153 192.155 183.153ZM192.308 182.25C192.706 182.25 193.041 182.172 193.314 182.016C193.589 181.859 193.797 181.658 193.936 181.411C194.078 181.163 194.149 180.903 194.149 180.631V179.71C194.106 179.761 194.012 179.808 193.868 179.851C193.726 179.891 193.561 179.926 193.373 179.957C193.189 179.986 193.008 180.011 192.832 180.034C192.659 180.054 192.518 180.071 192.41 180.085C192.149 180.119 191.905 180.175 191.677 180.251C191.453 180.325 191.271 180.437 191.132 180.588C190.995 180.736 190.927 180.937 190.927 181.193C190.927 181.543 191.057 181.807 191.315 181.986C191.576 182.162 191.907 182.25 192.308 182.25ZM196.99 183V176.455H197.962V177.443H198.03C198.149 177.119 198.365 176.857 198.678 176.655C198.99 176.453 199.342 176.352 199.734 176.352C199.808 176.352 199.901 176.354 200.011 176.357C200.122 176.359 200.206 176.364 200.263 176.369V177.392C200.229 177.384 200.151 177.371 200.028 177.354C199.909 177.334 199.783 177.324 199.649 177.324C199.331 177.324 199.047 177.391 198.797 177.524C198.55 177.655 198.354 177.837 198.209 178.07C198.067 178.3 197.996 178.562 197.996 178.858V183H196.99Z" fill="#9F9F9F"/>
<path d="M230.888 183H229.78L232.985 174.273H234.076L237.28 183H236.172L233.564 175.653H233.496L230.888 183ZM231.297 179.591H235.763V180.528H231.297V179.591ZM238.503 185.455V176.455H239.475V177.494H239.594C239.668 177.381 239.77 177.236 239.901 177.06C240.034 176.881 240.225 176.722 240.472 176.582C240.722 176.44 241.06 176.369 241.486 176.369C242.037 176.369 242.523 176.507 242.943 176.783C243.364 177.058 243.692 177.449 243.928 177.955C244.164 178.46 244.282 179.057 244.282 179.744C244.282 180.438 244.164 181.038 243.928 181.547C243.692 182.053 243.365 182.445 242.948 182.723C242.53 182.999 242.049 183.136 241.503 183.136C241.083 183.136 240.746 183.067 240.493 182.928C240.24 182.786 240.046 182.625 239.909 182.446C239.773 182.264 239.668 182.114 239.594 181.994H239.509V185.455H238.503ZM239.492 179.727C239.492 180.222 239.564 180.658 239.709 181.036C239.854 181.411 240.066 181.705 240.344 181.918C240.622 182.128 240.963 182.233 241.367 182.233C241.787 182.233 242.138 182.122 242.419 181.901C242.703 181.676 242.916 181.375 243.059 180.997C243.203 180.616 243.276 180.193 243.276 179.727C243.276 179.267 243.205 178.852 243.063 178.483C242.924 178.111 242.712 177.817 242.428 177.601C242.147 177.382 241.793 177.273 241.367 177.273C240.958 177.273 240.614 177.376 240.336 177.584C240.057 177.788 239.847 178.075 239.705 178.445C239.563 178.811 239.492 179.239 239.492 179.727ZM245.816 183V176.455H246.787V177.443H246.855C246.975 177.119 247.191 176.857 247.503 176.655C247.816 176.453 248.168 176.352 248.56 176.352C248.634 176.352 248.726 176.354 248.837 176.357C248.948 176.359 249.032 176.364 249.088 176.369V177.392C249.054 177.384 248.976 177.371 248.854 177.354C248.735 177.334 248.608 177.324 248.475 177.324C248.157 177.324 247.872 177.391 247.622 177.524C247.375 177.655 247.179 177.837 247.034 178.07C246.892 178.3 246.821 178.562 246.821 178.858V183H245.816Z" fill="#9F9F9F"/>
<path d="M278.365 174.273H279.627L282.593 181.517H282.695L285.661 174.273H286.922V183H285.934V176.369H285.848L283.121 183H282.167L279.439 176.369H279.354V183H278.365V174.273ZM290.831 183.153C290.416 183.153 290.04 183.075 289.702 182.919C289.364 182.76 289.095 182.531 288.896 182.233C288.697 181.932 288.598 181.568 288.598 181.142C288.598 180.767 288.672 180.463 288.82 180.23C288.967 179.994 289.165 179.81 289.412 179.676C289.659 179.543 289.932 179.443 290.23 179.378C290.531 179.31 290.834 179.256 291.138 179.216C291.536 179.165 291.858 179.126 292.105 179.101C292.355 179.072 292.537 179.026 292.651 178.96C292.767 178.895 292.825 178.781 292.825 178.619V178.585C292.825 178.165 292.71 177.838 292.48 177.605C292.253 177.372 291.908 177.256 291.445 177.256C290.964 177.256 290.588 177.361 290.315 177.571C290.043 177.781 289.851 178.006 289.74 178.244L288.786 177.903C288.956 177.506 289.183 177.196 289.467 176.974C289.754 176.75 290.067 176.594 290.405 176.506C290.746 176.415 291.081 176.369 291.411 176.369C291.621 176.369 291.862 176.395 292.135 176.446C292.411 176.494 292.676 176.595 292.932 176.749C293.19 176.902 293.405 177.134 293.575 177.443C293.746 177.753 293.831 178.168 293.831 178.688V183H292.825V182.114H292.774C292.706 182.256 292.592 182.408 292.433 182.57C292.274 182.732 292.063 182.869 291.798 182.983C291.534 183.097 291.212 183.153 290.831 183.153ZM290.984 182.25C291.382 182.25 291.717 182.172 291.99 182.016C292.266 181.859 292.473 181.658 292.612 181.411C292.754 181.163 292.825 180.903 292.825 180.631V179.71C292.783 179.761 292.689 179.808 292.544 179.851C292.402 179.891 292.237 179.926 292.05 179.957C291.865 179.986 291.685 180.011 291.509 180.034C291.335 180.054 291.195 180.071 291.087 180.085C290.825 180.119 290.581 180.175 290.354 180.251C290.129 180.325 289.947 180.437 289.808 180.588C289.672 180.736 289.604 180.937 289.604 181.193C289.604 181.543 289.733 181.807 289.991 181.986C290.253 182.162 290.584 182.25 290.984 182.25ZM296.08 185.455C295.909 185.455 295.757 185.44 295.624 185.412C295.49 185.386 295.398 185.361 295.347 185.335L295.603 184.449C295.847 184.511 296.063 184.534 296.25 184.517C296.438 184.5 296.604 184.416 296.749 184.266C296.897 184.118 297.032 183.878 297.154 183.545L297.341 183.034L294.921 176.455H296.012L297.819 181.67H297.887L299.694 176.455H300.784L298.006 183.955C297.881 184.293 297.726 184.572 297.542 184.794C297.357 185.018 297.142 185.185 296.898 185.293C296.657 185.401 296.384 185.455 296.08 185.455Z" fill="#9F9F9F"/>
<path d="M333.727 174.273H334.784V180.511C334.784 181.068 334.682 181.541 334.477 181.93C334.273 182.32 333.984 182.615 333.612 182.817C333.24 183.018 332.801 183.119 332.295 183.119C331.818 183.119 331.393 183.033 331.021 182.859C330.649 182.683 330.356 182.433 330.143 182.109C329.93 181.786 329.824 181.401 329.824 180.955H330.864C330.864 181.202 330.925 181.418 331.047 181.602C331.172 181.784 331.342 181.926 331.558 182.028C331.774 182.131 332.02 182.182 332.295 182.182C332.599 182.182 332.858 182.118 333.071 181.99C333.284 181.862 333.446 181.675 333.557 181.428C333.67 181.178 333.727 180.872 333.727 180.511V174.273ZM340.891 180.324V176.455H341.896V183H340.891V181.892H340.822C340.669 182.224 340.43 182.507 340.106 182.74C339.783 182.97 339.373 183.085 338.879 183.085C338.47 183.085 338.106 182.996 337.788 182.817C337.47 182.635 337.22 182.362 337.038 181.999C336.856 181.632 336.766 181.17 336.766 180.614V176.455H337.771V180.545C337.771 181.023 337.905 181.403 338.172 181.688C338.442 181.972 338.785 182.114 339.203 182.114C339.453 182.114 339.707 182.05 339.966 181.922C340.227 181.794 340.446 181.598 340.622 181.334C340.801 181.07 340.891 180.733 340.891 180.324ZM344.744 179.062V183H343.738V176.455H344.71V177.477H344.795C344.948 177.145 345.181 176.878 345.494 176.676C345.806 176.472 346.21 176.369 346.704 176.369C347.147 176.369 347.535 176.46 347.867 176.642C348.2 176.821 348.458 177.094 348.643 177.46C348.828 177.824 348.92 178.284 348.92 178.841V183H347.914V178.909C347.914 178.395 347.781 177.994 347.514 177.707C347.247 177.418 346.88 177.273 346.414 177.273C346.093 177.273 345.806 177.342 345.554 177.482C345.304 177.621 345.106 177.824 344.961 178.091C344.816 178.358 344.744 178.682 344.744 179.062Z" fill="#9F9F9F"/>
<path d="M385.646 174.273H386.703V180.511C386.703 181.068 386.601 181.541 386.396 181.93C386.192 182.32 385.904 182.615 385.531 182.817C385.159 183.018 384.72 183.119 384.215 183.119C383.737 183.119 383.313 183.033 382.94 182.859C382.568 182.683 382.276 182.433 382.063 182.109C381.85 181.786 381.743 181.401 381.743 180.955H382.783C382.783 181.202 382.844 181.418 382.966 181.602C383.091 181.784 383.261 181.926 383.477 182.028C383.693 182.131 383.939 182.182 384.215 182.182C384.519 182.182 384.777 182.118 384.99 181.99C385.203 181.862 385.365 181.675 385.476 181.428C385.59 181.178 385.646 180.872 385.646 180.511V174.273ZM392.81 180.324V176.455H393.815V183H392.81V181.892H392.742C392.588 182.224 392.35 182.507 392.026 182.74C391.702 182.97 391.293 183.085 390.798 183.085C390.389 183.085 390.026 182.996 389.707 182.817C389.389 182.635 389.139 182.362 388.957 181.999C388.776 181.632 388.685 181.17 388.685 180.614V176.455H389.69V180.545C389.69 181.023 389.824 181.403 390.091 181.688C390.361 181.972 390.705 182.114 391.122 182.114C391.372 182.114 391.627 182.05 391.885 181.922C392.146 181.794 392.365 181.598 392.541 181.334C392.72 181.07 392.81 180.733 392.81 180.324ZM396.663 174.273V183H395.657V174.273H396.663Z" fill="#9F9F9F"/>
<path d="M428.968 183H427.86L431.064 174.273H432.155L435.36 183H434.252L431.644 175.653H431.575L428.968 183ZM429.377 179.591H433.843V180.528H429.377V179.591ZM440.708 180.324V176.455H441.713V183H440.708V181.892H440.639C440.486 182.224 440.247 182.507 439.923 182.74C439.6 182.97 439.191 183.085 438.696 183.085C438.287 183.085 437.923 182.996 437.605 182.817C437.287 182.635 437.037 182.362 436.855 181.999C436.673 181.632 436.583 181.17 436.583 180.614V176.455H437.588V180.545C437.588 181.023 437.722 181.403 437.989 181.688C438.259 181.972 438.602 182.114 439.02 182.114C439.27 182.114 439.524 182.05 439.783 181.922C440.044 181.794 440.263 181.598 440.439 181.334C440.618 181.07 440.708 180.733 440.708 180.324ZM446.197 185.591C445.711 185.591 445.294 185.528 444.944 185.403C444.595 185.281 444.304 185.119 444.071 184.918C443.841 184.719 443.657 184.506 443.521 184.278L444.322 183.716C444.413 183.835 444.528 183.972 444.667 184.125C444.807 184.281 444.997 184.416 445.238 184.53C445.483 184.646 445.802 184.705 446.197 184.705C446.726 184.705 447.162 184.577 447.506 184.321C447.849 184.065 448.021 183.665 448.021 183.119V181.79H447.936C447.862 181.909 447.757 182.057 447.621 182.233C447.487 182.406 447.294 182.561 447.041 182.697C446.791 182.831 446.453 182.898 446.027 182.898C445.498 182.898 445.024 182.773 444.604 182.523C444.186 182.273 443.855 181.909 443.611 181.432C443.369 180.955 443.248 180.375 443.248 179.693C443.248 179.023 443.366 178.439 443.602 177.942C443.838 177.442 444.166 177.055 444.586 176.783C445.007 176.507 445.493 176.369 446.044 176.369C446.47 176.369 446.808 176.44 447.058 176.582C447.311 176.722 447.504 176.881 447.638 177.06C447.774 177.236 447.879 177.381 447.953 177.494H448.055V176.455H449.027V183.188C449.027 183.75 448.899 184.207 448.643 184.56C448.39 184.915 448.05 185.175 447.621 185.339C447.194 185.507 446.72 185.591 446.197 185.591ZM446.163 181.994C446.567 181.994 446.907 181.902 447.186 181.717C447.464 181.533 447.676 181.267 447.821 180.92C447.966 180.574 448.038 180.159 448.038 179.676C448.038 179.205 447.967 178.788 447.825 178.428C447.683 178.067 447.473 177.784 447.194 177.58C446.916 177.375 446.572 177.273 446.163 177.273C445.737 177.273 445.382 177.381 445.098 177.597C444.817 177.812 444.605 178.102 444.463 178.466C444.324 178.83 444.254 179.233 444.254 179.676C444.254 180.131 444.325 180.533 444.467 180.882C444.612 181.229 444.825 181.501 445.106 181.7C445.39 181.896 445.743 181.994 446.163 181.994Z" fill="#9F9F9F"/>
<path d="M483.438 176.455C483.387 176.023 483.18 175.688 482.816 175.449C482.452 175.21 482.006 175.091 481.478 175.091C481.092 175.091 480.754 175.153 480.464 175.278C480.177 175.403 479.952 175.575 479.791 175.794C479.631 176.013 479.552 176.261 479.552 176.54C479.552 176.773 479.607 176.973 479.718 177.141C479.832 177.305 479.977 177.443 480.153 177.554C480.329 177.662 480.514 177.751 480.707 177.822C480.9 177.891 481.077 177.946 481.239 177.989L482.126 178.227C482.353 178.287 482.606 178.369 482.884 178.474C483.166 178.58 483.434 178.723 483.69 178.905C483.948 179.084 484.161 179.314 484.329 179.595C484.497 179.876 484.58 180.222 484.58 180.631C484.58 181.102 484.457 181.528 484.21 181.909C483.965 182.29 483.607 182.592 483.136 182.817C482.667 183.041 482.097 183.153 481.427 183.153C480.802 183.153 480.261 183.053 479.803 182.851C479.349 182.649 478.991 182.368 478.729 182.007C478.471 181.646 478.325 181.227 478.291 180.75H479.381C479.41 181.08 479.521 181.352 479.714 181.568C479.91 181.781 480.157 181.94 480.455 182.045C480.756 182.148 481.08 182.199 481.427 182.199C481.83 182.199 482.193 182.134 482.514 182.003C482.835 181.869 483.089 181.685 483.276 181.449C483.464 181.21 483.558 180.932 483.558 180.614C483.558 180.324 483.477 180.088 483.315 179.906C483.153 179.724 482.94 179.577 482.675 179.463C482.411 179.349 482.126 179.25 481.819 179.165L480.745 178.858C480.063 178.662 479.524 178.382 479.126 178.018C478.728 177.655 478.529 177.179 478.529 176.591C478.529 176.102 478.661 175.676 478.925 175.312C479.193 174.946 479.55 174.662 479.999 174.46C480.451 174.256 480.955 174.153 481.512 174.153C482.075 174.153 482.575 174.254 483.012 174.456C483.45 174.655 483.796 174.928 484.052 175.274C484.31 175.621 484.447 176.014 484.461 176.455H483.438ZM488.926 183.136C488.295 183.136 487.751 182.997 487.294 182.719C486.839 182.438 486.488 182.045 486.241 181.543C485.997 181.037 485.875 180.449 485.875 179.778C485.875 179.108 485.997 178.517 486.241 178.006C486.488 177.491 486.832 177.091 487.272 176.804C487.716 176.514 488.233 176.369 488.824 176.369C489.164 176.369 489.501 176.426 489.834 176.54C490.166 176.653 490.468 176.838 490.741 177.094C491.014 177.347 491.231 177.682 491.393 178.099C491.555 178.517 491.636 179.031 491.636 179.642V180.068H486.591V179.199H490.613C490.613 178.83 490.539 178.5 490.392 178.21C490.247 177.92 490.039 177.692 489.77 177.524C489.503 177.357 489.187 177.273 488.824 177.273C488.423 177.273 488.076 177.372 487.784 177.571C487.494 177.767 487.271 178.023 487.115 178.338C486.959 178.653 486.88 178.991 486.88 179.352V179.932C486.88 180.426 486.966 180.845 487.136 181.189C487.309 181.53 487.549 181.79 487.856 181.969C488.163 182.145 488.52 182.233 488.926 182.233C489.19 182.233 489.429 182.196 489.642 182.122C489.858 182.045 490.044 181.932 490.2 181.781C490.356 181.628 490.477 181.437 490.562 181.21L491.534 181.483C491.432 181.812 491.26 182.102 491.018 182.352C490.777 182.599 490.478 182.793 490.123 182.932C489.768 183.068 489.369 183.136 488.926 183.136ZM493.166 185.455V176.455H494.137V177.494H494.257C494.331 177.381 494.433 177.236 494.564 177.06C494.697 176.881 494.887 176.722 495.135 176.582C495.385 176.44 495.723 176.369 496.149 176.369C496.7 176.369 497.186 176.507 497.606 176.783C498.027 177.058 498.355 177.449 498.591 177.955C498.826 178.46 498.944 179.057 498.944 179.744C498.944 180.438 498.826 181.038 498.591 181.547C498.355 182.053 498.028 182.445 497.611 182.723C497.193 182.999 496.711 183.136 496.166 183.136C495.745 183.136 495.409 183.067 495.156 182.928C494.903 182.786 494.709 182.625 494.572 182.446C494.436 182.264 494.331 182.114 494.257 181.994H494.172V185.455H493.166ZM494.155 179.727C494.155 180.222 494.227 180.658 494.372 181.036C494.517 181.411 494.728 181.705 495.007 181.918C495.285 182.128 495.626 182.233 496.03 182.233C496.45 182.233 496.801 182.122 497.082 181.901C497.366 181.676 497.579 181.375 497.721 180.997C497.866 180.616 497.939 180.193 497.939 179.727C497.939 179.267 497.868 178.852 497.726 178.483C497.586 178.111 497.375 177.817 497.091 177.601C496.809 177.382 496.456 177.273 496.03 177.273C495.62 177.273 495.277 177.376 494.998 177.584C494.72 177.788 494.51 178.075 494.368 178.445C494.226 178.811 494.155 179.239 494.155 179.727Z" fill="#9F9F9F"/>
<path d="M537.236 178.636C537.236 179.557 537.069 180.352 536.737 181.023C536.405 181.693 535.949 182.21 535.369 182.574C534.79 182.938 534.128 183.119 533.383 183.119C532.639 183.119 531.977 182.938 531.398 182.574C530.818 182.21 530.362 181.693 530.03 181.023C529.697 180.352 529.531 179.557 529.531 178.636C529.531 177.716 529.697 176.92 530.03 176.25C530.362 175.58 530.818 175.062 531.398 174.699C531.977 174.335 532.639 174.153 533.383 174.153C534.128 174.153 534.79 174.335 535.369 174.699C535.949 175.062 536.405 175.58 536.737 176.25C537.069 176.92 537.236 177.716 537.236 178.636ZM536.213 178.636C536.213 177.881 536.086 177.243 535.834 176.723C535.584 176.203 535.244 175.81 534.815 175.543C534.389 175.276 533.912 175.142 533.383 175.142C532.855 175.142 532.376 175.276 531.947 175.543C531.521 175.81 531.182 176.203 530.929 176.723C530.679 177.243 530.554 177.881 530.554 178.636C530.554 179.392 530.679 180.03 530.929 180.55C531.182 181.07 531.521 181.463 531.947 181.73C532.376 181.997 532.855 182.131 533.383 182.131C533.912 182.131 534.389 181.997 534.815 181.73C535.244 181.463 535.584 181.07 535.834 180.55C536.086 180.03 536.213 179.392 536.213 178.636ZM541.535 183.136C540.922 183.136 540.393 182.991 539.95 182.702C539.507 182.412 539.166 182.013 538.927 181.504C538.689 180.996 538.569 180.415 538.569 179.761C538.569 179.097 538.692 178.51 538.936 178.001C539.183 177.49 539.527 177.091 539.967 176.804C540.41 176.514 540.927 176.369 541.518 176.369C541.978 176.369 542.393 176.455 542.763 176.625C543.132 176.795 543.434 177.034 543.67 177.341C543.906 177.648 544.052 178.006 544.109 178.415H543.103C543.027 178.116 542.856 177.852 542.592 177.622C542.331 177.389 541.978 177.273 541.535 177.273C541.143 177.273 540.799 177.375 540.504 177.58C540.211 177.781 539.983 178.067 539.818 178.436C539.656 178.803 539.575 179.233 539.575 179.727C539.575 180.233 539.655 180.673 539.814 181.048C539.976 181.423 540.203 181.714 540.496 181.922C540.791 182.129 541.138 182.233 541.535 182.233C541.797 182.233 542.034 182.188 542.247 182.097C542.46 182.006 542.64 181.875 542.788 181.705C542.936 181.534 543.041 181.33 543.103 181.091H544.109C544.052 181.477 543.912 181.825 543.687 182.135C543.466 182.442 543.172 182.686 542.805 182.868C542.442 183.047 542.018 183.136 541.535 183.136ZM548.426 176.455V177.307H545.034V176.455H548.426ZM546.023 174.886H547.028V181.125C547.028 181.409 547.069 181.622 547.152 181.764C547.237 181.903 547.345 181.997 547.476 182.045C547.609 182.091 547.75 182.114 547.898 182.114C548.008 182.114 548.099 182.108 548.17 182.097C548.241 182.082 548.298 182.071 548.341 182.062L548.545 182.966C548.477 182.991 548.382 183.017 548.26 183.043C548.138 183.071 547.983 183.085 547.795 183.085C547.511 183.085 547.233 183.024 546.96 182.902C546.69 182.78 546.466 182.594 546.287 182.344C546.111 182.094 546.023 181.778 546.023 181.398V174.886Z" fill="#9F9F9F"/>
<path d="M585.407 174.273V183H584.384L579.629 176.148H579.543V183H578.487V174.273H579.509L584.282 181.142H584.367V174.273H585.407ZM590.044 183.136C589.453 183.136 588.935 182.996 588.489 182.714C588.046 182.433 587.699 182.04 587.449 181.534C587.202 181.028 587.078 180.437 587.078 179.761C587.078 179.08 587.202 178.484 587.449 177.976C587.699 177.467 588.046 177.072 588.489 176.791C588.935 176.51 589.453 176.369 590.044 176.369C590.635 176.369 591.152 176.51 591.596 176.791C592.042 177.072 592.388 177.467 592.635 177.976C592.885 178.484 593.01 179.08 593.01 179.761C593.01 180.437 592.885 181.028 592.635 181.534C592.388 182.04 592.042 182.433 591.596 182.714C591.152 182.996 590.635 183.136 590.044 183.136ZM590.044 182.233C590.493 182.233 590.863 182.118 591.152 181.888C591.442 181.658 591.657 181.355 591.796 180.98C591.935 180.605 592.005 180.199 592.005 179.761C592.005 179.324 591.935 178.916 591.796 178.538C591.657 178.161 591.442 177.855 591.152 177.622C590.863 177.389 590.493 177.273 590.044 177.273C589.596 177.273 589.226 177.389 588.936 177.622C588.647 177.855 588.432 178.161 588.293 178.538C588.154 178.916 588.084 179.324 588.084 179.761C588.084 180.199 588.154 180.605 588.293 180.98C588.432 181.355 588.647 181.658 588.936 181.888C589.226 182.118 589.596 182.233 590.044 182.233ZM599.663 176.455L597.243 183H596.22L593.8 176.455H594.891L596.697 181.67H596.766L598.572 176.455H599.663Z" fill="#9F9F9F"/>
<path d="M631.177 183H628.484V174.273H631.296C632.143 174.273 632.867 174.447 633.47 174.797C634.072 175.143 634.534 175.642 634.855 176.293C635.176 176.94 635.336 177.716 635.336 178.619C635.336 179.528 635.174 180.311 634.85 180.967C634.526 181.621 634.055 182.124 633.436 182.476C632.816 182.825 632.063 183 631.177 183ZM629.541 182.062H631.109C631.83 182.062 632.428 181.923 632.903 181.645C633.377 181.366 633.731 180.97 633.964 180.456C634.197 179.942 634.313 179.33 634.313 178.619C634.313 177.915 634.198 177.308 633.968 176.8C633.738 176.288 633.394 175.896 632.937 175.624C632.48 175.348 631.91 175.21 631.228 175.21H629.541V182.062ZM639.717 183.136C639.086 183.136 638.542 182.997 638.085 182.719C637.63 182.438 637.279 182.045 637.032 181.543C636.788 181.037 636.666 180.449 636.666 179.778C636.666 179.108 636.788 178.517 637.032 178.006C637.279 177.491 637.623 177.091 638.063 176.804C638.507 176.514 639.024 176.369 639.615 176.369C639.955 176.369 640.292 176.426 640.625 176.54C640.957 176.653 641.259 176.838 641.532 177.094C641.805 177.347 642.022 177.682 642.184 178.099C642.346 178.517 642.427 179.031 642.427 179.642V180.068H637.382V179.199H641.404C641.404 178.83 641.33 178.5 641.183 178.21C641.038 177.92 640.83 177.692 640.561 177.524C640.294 177.357 639.978 177.273 639.615 177.273C639.214 177.273 638.867 177.372 638.575 177.571C638.285 177.767 638.062 178.023 637.906 178.338C637.75 178.653 637.671 178.991 637.671 179.352V179.932C637.671 180.426 637.757 180.845 637.927 181.189C638.1 181.53 638.34 181.79 638.647 181.969C638.954 182.145 639.311 182.233 639.717 182.233C639.981 182.233 640.22 182.196 640.433 182.122C640.649 182.045 640.835 181.932 640.991 181.781C641.147 181.628 641.268 181.437 641.353 181.21L642.325 181.483C642.223 181.812 642.051 182.102 641.809 182.352C641.568 182.599 641.269 182.793 640.914 182.932C640.559 183.068 640.16 183.136 639.717 183.136ZM646.616 183.136C646.002 183.136 645.474 182.991 645.031 182.702C644.588 182.412 644.247 182.013 644.008 181.504C643.769 180.996 643.65 180.415 643.65 179.761C643.65 179.097 643.772 178.51 644.017 178.001C644.264 177.49 644.607 177.091 645.048 176.804C645.491 176.514 646.008 176.369 646.599 176.369C647.059 176.369 647.474 176.455 647.843 176.625C648.213 176.795 648.515 177.034 648.751 177.341C648.987 177.648 649.133 178.006 649.19 178.415H648.184C648.107 178.116 647.937 177.852 647.673 177.622C647.411 177.389 647.059 177.273 646.616 177.273C646.224 177.273 645.88 177.375 645.585 177.58C645.292 177.781 645.063 178.067 644.899 178.436C644.737 178.803 644.656 179.233 644.656 179.727C644.656 180.233 644.735 180.673 644.894 181.048C645.056 181.423 645.284 181.714 645.576 181.922C645.872 182.129 646.218 182.233 646.616 182.233C646.877 182.233 647.115 182.188 647.328 182.097C647.541 182.006 647.721 181.875 647.869 181.705C648.017 181.534 648.122 181.33 648.184 181.091H649.19C649.133 181.477 648.992 181.825 648.768 182.135C648.546 182.442 648.252 182.686 647.886 182.868C647.522 183.047 647.099 183.136 646.616 183.136Z" fill="#9F9F9F"/>
<path d="M43.5018 165.119C43.0018 165.119 42.5515 165.02 42.1509 164.821C41.7504 164.622 41.4293 164.349 41.1879 164.003C40.9464 163.656 40.8143 163.261 40.7915 162.818H41.8143C41.854 163.213 42.033 163.54 42.3512 163.798C42.6722 164.054 43.0558 164.182 43.5018 164.182C43.8597 164.182 44.1779 164.098 44.4563 163.93C44.7376 163.763 44.9577 163.533 45.1168 163.24C45.2788 162.945 45.3597 162.611 45.3597 162.239C45.3597 161.858 45.2759 161.518 45.1083 161.22C44.9435 160.919 44.7163 160.682 44.4265 160.509C44.1367 160.335 43.8058 160.247 43.4336 160.244C43.1665 160.241 42.8924 160.283 42.6112 160.368C42.3299 160.45 42.0984 160.557 41.9165 160.688L40.9279 160.568L41.4563 156.273H45.9904V157.21H42.3427L42.0359 159.784H42.087C42.266 159.642 42.4904 159.524 42.7603 159.43C43.0302 159.337 43.3114 159.29 43.604 159.29C44.1381 159.29 44.614 159.418 45.0316 159.673C45.4521 159.926 45.7816 160.273 46.0202 160.713C46.2617 161.153 46.3825 161.656 46.3825 162.222C46.3825 162.778 46.2575 163.276 46.0075 163.713C45.7603 164.148 45.4194 164.491 44.9847 164.744C44.5501 164.994 44.0558 165.119 43.5018 165.119ZM48.2287 165V156.273H49.2855V160.602H49.3878L53.3082 156.273H54.6889L51.0241 160.21L54.6889 165H53.4105L50.3764 160.943L49.2855 162.17V165H48.2287Z" fill="#B0ABAB"/>
<path d="M38.0653 116.273V125H37.0085V117.381H36.9574L34.8267 118.795V117.722L37.0085 116.273H38.0653ZM43.4219 125.119C42.7798 125.119 42.233 124.945 41.7812 124.595C41.3295 124.243 40.9844 123.733 40.7457 123.065C40.5071 122.395 40.3878 121.585 40.3878 120.636C40.3878 119.693 40.5071 118.888 40.7457 118.22C40.9872 117.55 41.3338 117.038 41.7855 116.686C42.2401 116.331 42.7855 116.153 43.4219 116.153C44.0582 116.153 44.6023 116.331 45.054 116.686C45.5085 117.038 45.8551 117.55 46.0938 118.22C46.3352 118.888 46.456 119.693 46.456 120.636C46.456 121.585 46.3366 122.395 46.098 123.065C45.8594 123.733 45.5142 124.243 45.0625 124.595C44.6108 124.945 44.0639 125.119 43.4219 125.119ZM43.4219 124.182C44.0582 124.182 44.5526 123.875 44.9048 123.261C45.2571 122.648 45.4332 121.773 45.4332 120.636C45.4332 119.881 45.3523 119.237 45.1903 118.706C45.0313 118.175 44.8011 117.77 44.5 117.491C44.2017 117.213 43.8423 117.074 43.4219 117.074C42.7912 117.074 42.2983 117.385 41.9432 118.007C41.5881 118.626 41.4105 119.503 41.4105 120.636C41.4105 121.392 41.4901 122.034 41.6491 122.562C41.8082 123.091 42.0369 123.493 42.3352 123.768C42.6364 124.044 42.9986 124.182 43.4219 124.182ZM48.2287 125V116.273H49.2855V120.602H49.3878L53.3082 116.273H54.6889L51.0241 120.21L54.6889 125H53.4105L50.3764 120.943L49.2855 122.17V125H48.2287Z" fill="#B0ABAB"/>
<path d="M33.3097 85V84.233L36.1903 81.0795C36.5284 80.7102 36.8068 80.3892 37.0256 80.1165C37.2443 79.8409 37.4063 79.5824 37.5114 79.3409C37.6193 79.0966 37.6733 78.8409 37.6733 78.5739C37.6733 78.267 37.5994 78.0014 37.4517 77.777C37.3068 77.5526 37.108 77.3793 36.8551 77.2571C36.6023 77.1349 36.3182 77.0739 36.0028 77.0739C35.6676 77.0739 35.375 77.1435 35.125 77.2827C34.8778 77.419 34.6861 77.6108 34.5497 77.858C34.4162 78.1051 34.3494 78.3949 34.3494 78.7273H33.3438C33.3438 78.2159 33.4616 77.767 33.6974 77.3807C33.9332 76.9943 34.2543 76.6932 34.6605 76.4773C35.0696 76.2614 35.5284 76.1534 36.0369 76.1534C36.5483 76.1534 37.0014 76.2614 37.3963 76.4773C37.7912 76.6932 38.1009 76.9844 38.3253 77.3509C38.5497 77.7173 38.6619 78.125 38.6619 78.5739C38.6619 78.8949 38.6037 79.2088 38.4872 79.5156C38.3736 79.8196 38.1747 80.1591 37.8906 80.5341C37.6094 80.9062 37.2188 81.3608 36.7188 81.8977L34.7585 83.9943V84.0625H38.8153V85H33.3097ZM43.4219 85.1193C42.7798 85.1193 42.233 84.9446 41.7812 84.5952C41.3295 84.2429 40.9844 83.733 40.7457 83.0653C40.5071 82.3949 40.3878 81.5852 40.3878 80.6364C40.3878 79.6932 40.5071 78.8878 40.7457 78.2202C40.9872 77.5497 41.3338 77.0384 41.7855 76.6861C42.2401 76.331 42.7855 76.1534 43.4219 76.1534C44.0582 76.1534 44.6023 76.331 45.054 76.6861C45.5085 77.0384 45.8551 77.5497 46.0938 78.2202C46.3352 78.8878 46.456 79.6932 46.456 80.6364C46.456 81.5852 46.3366 82.3949 46.098 83.0653C45.8594 83.733 45.5142 84.2429 45.0625 84.5952C44.6108 84.9446 44.0639 85.1193 43.4219 85.1193ZM43.4219 84.1818C44.0582 84.1818 44.5526 83.875 44.9048 83.2614C45.2571 82.6477 45.4332 81.7727 45.4332 80.6364C45.4332 79.8807 45.3523 79.2372 45.1903 78.706C45.0313 78.1747 44.8011 77.7699 44.5 77.4915C44.2017 77.2131 43.8423 77.0739 43.4219 77.0739C42.7912 77.0739 42.2983 77.3849 41.9432 78.0071C41.5881 78.6264 41.4105 79.5028 41.4105 80.6364C41.4105 81.392 41.4901 82.0341 41.6491 82.5625C41.8082 83.0909 42.0369 83.4929 42.3352 83.7685C42.6364 84.044 42.9986 84.1818 43.4219 84.1818ZM48.2287 85V76.2727H49.2855V80.6023H49.3878L53.3082 76.2727H54.6889L51.0241 80.2102L54.6889 85H53.4105L50.3764 80.9432L49.2855 82.1705V85H48.2287Z" fill="#B0ABAB"/>
<path d="M35.8835 45.1193C35.321 45.1193 34.8196 45.0227 34.3793 44.8295C33.9418 44.6364 33.5938 44.3679 33.3352 44.0241C33.0795 43.6776 32.9403 43.2756 32.9176 42.8182H33.9915C34.0142 43.0994 34.1108 43.3423 34.2812 43.5469C34.4517 43.7486 34.6747 43.9048 34.9503 44.0156C35.2259 44.1264 35.5313 44.1818 35.8665 44.1818C36.2415 44.1818 36.5739 44.1165 36.8636 43.9858C37.1534 43.8551 37.3807 43.6733 37.5455 43.4403C37.7102 43.2074 37.7926 42.9375 37.7926 42.6307C37.7926 42.3097 37.7131 42.027 37.554 41.7827C37.3949 41.5355 37.1619 41.3423 36.8551 41.2031C36.5483 41.0639 36.1733 40.9943 35.7301 40.9943H35.0312V40.0568H35.7301C36.0767 40.0568 36.3807 39.9943 36.642 39.8693C36.9063 39.7443 37.1122 39.5682 37.2599 39.3409C37.4105 39.1136 37.4858 38.8466 37.4858 38.5398C37.4858 38.2443 37.4205 37.9872 37.2898 37.7685C37.1591 37.5497 36.9744 37.3793 36.7358 37.2571C36.5 37.1349 36.2216 37.0739 35.9006 37.0739C35.5994 37.0739 35.3153 37.1293 35.0483 37.2401C34.7841 37.348 34.5682 37.5057 34.4006 37.7131C34.233 37.9176 34.142 38.1648 34.1278 38.4545H33.1051C33.1222 37.9972 33.2599 37.5966 33.5185 37.2528C33.777 36.9062 34.1151 36.6364 34.5327 36.4432C34.9531 36.25 35.4148 36.1534 35.9176 36.1534C36.4574 36.1534 36.9205 36.2628 37.3068 36.4815C37.6932 36.6974 37.9901 36.983 38.1974 37.3381C38.4048 37.6932 38.5085 38.0767 38.5085 38.4886C38.5085 38.9801 38.3793 39.3991 38.1207 39.7457C37.8651 40.0923 37.517 40.3324 37.0767 40.4659V40.5341C37.6278 40.625 38.0582 40.8594 38.3679 41.2372C38.6776 41.6122 38.8324 42.0767 38.8324 42.6307C38.8324 43.1051 38.7031 43.5312 38.4446 43.9091C38.1889 44.2841 37.8395 44.5795 37.3963 44.7955C36.9531 45.0114 36.4489 45.1193 35.8835 45.1193ZM43.4219 45.1193C42.7798 45.1193 42.233 44.9446 41.7812 44.5952C41.3295 44.2429 40.9844 43.733 40.7457 43.0653C40.5071 42.3949 40.3878 41.5852 40.3878 40.6364C40.3878 39.6932 40.5071 38.8878 40.7457 38.2202C40.9872 37.5497 41.3338 37.0384 41.7855 36.6861C42.2401 36.331 42.7855 36.1534 43.4219 36.1534C44.0582 36.1534 44.6023 36.331 45.054 36.6861C45.5085 37.0384 45.8551 37.5497 46.0938 38.2202C46.3352 38.8878 46.456 39.6932 46.456 40.6364C46.456 41.5852 46.3366 42.3949 46.098 43.0653C45.8594 43.733 45.5142 44.2429 45.0625 44.5952C44.6108 44.9446 44.0639 45.1193 43.4219 45.1193ZM43.4219 44.1818C44.0582 44.1818 44.5526 43.875 44.9048 43.2614C45.2571 42.6477 45.4332 41.7727 45.4332 40.6364C45.4332 39.8807 45.3523 39.2372 45.1903 38.706C45.0313 38.1747 44.8011 37.7699 44.5 37.4915C44.2017 37.2131 43.8423 37.0739 43.4219 37.0739C42.7912 37.0739 42.2983 37.3849 41.9432 38.0071C41.5881 38.6264 41.4105 39.5028 41.4105 40.6364C41.4105 41.392 41.4901 42.0341 41.6491 42.5625C41.8082 43.0909 42.0369 43.4929 42.3352 43.7685C42.6364 44.044 42.9986 44.1818 43.4219 44.1818ZM48.2287 45V36.2727H49.2855V40.6023H49.3878L53.3082 36.2727H54.6889L51.0241 40.2102L54.6889 45H53.4105L50.3764 40.9432L49.2855 42.1705V45H48.2287Z" fill="#B0ABAB"/>
<path d="M32.6715 7.41024V6.54092L36.5067 0.472739H37.1374V1.81933H36.7113L33.8136 6.40456V6.47274H38.9783V7.41024H32.6715ZM36.7795 9.20001V7.14603V6.74121V0.472739H37.7852V9.20001H36.7795ZM43.4219 9.31933C42.7798 9.31933 42.233 9.14461 41.7812 8.79518C41.3295 8.44291 40.9844 7.93297 40.7457 7.26535C40.5071 6.5949 40.3878 5.78524 40.3878 4.83638C40.3878 3.89319 40.5071 3.0878 40.7457 2.42018C40.9872 1.74973 41.3338 1.23836 41.7855 0.886091C42.2401 0.530978 42.7855 0.353421 43.4219 0.353421C44.0582 0.353421 44.6023 0.530978 45.054 0.886091C45.5085 1.23836 45.8551 1.74973 46.0938 2.42018C46.3352 3.0878 46.456 3.89319 46.456 4.83638C46.456 5.78524 46.3366 6.5949 46.098 7.26535C45.8594 7.93297 45.5142 8.44291 45.0625 8.79518C44.6108 9.14461 44.0639 9.31933 43.4219 9.31933ZM43.4219 8.38183C44.0582 8.38183 44.5526 8.07501 44.9048 7.46138C45.2571 6.84774 45.4332 5.97274 45.4332 4.83638C45.4332 4.08069 45.3523 3.43723 45.1903 2.90598C45.0313 2.37473 44.8011 1.9699 44.5 1.69149C44.2017 1.41308 43.8423 1.27388 43.4219 1.27388C42.7912 1.27388 42.2983 1.58496 41.9432 2.20711C41.5881 2.82643 41.4105 3.70285 41.4105 4.83638C41.4105 5.59206 41.4901 6.2341 41.6491 6.76251C41.8082 7.29092 42.0369 7.69291 42.3352 7.96848C42.6364 8.24405 42.9986 8.38183 43.4219 8.38183ZM48.2287 9.20001V0.472739H49.2855V4.80228H49.3878L53.3082 0.472739H54.6889L51.0241 4.41024L54.6889 9.20001H53.4105L50.3764 5.14319L49.2855 6.37047V9.20001H48.2287Z" fill="#B0ABAB"/>
<path d="M69.9833 120H86.9833V165H69.9833V120Z" fill="#605BFF"/>
<path d="M119.817 35H136.817V165H119.817V35Z" fill="#605BFF"/>
<path d="M169.65 45H186.65V165H169.65V45Z" fill="#605BFF"/>
<path d="M219.483 95H236.483V165H219.483V95Z" fill="#605BFF"/>
<path d="M269.317 90H286.317V165H269.317V90Z" fill="#605BFF"/>
<path d="M319.15 30H336.15V165H319.15V30Z" fill="#605BFF"/>
<path d="M368.983 55H385.983V165H368.983V55Z" fill="#605BFF"/>
<path d="M418.817 30H435.817V165H418.817V30Z" fill="#605BFF"/>
<path d="M468.65 125H485.65V165H468.65V125Z" fill="#605BFF"/>
<path d="M518.483 100H535.483V165H518.483V100Z" fill="#605BFF"/>
<path d="M568.317 80H585.317V165H568.317V80Z" fill="#605BFF"/>
<path d="M618.15 120H635.15V165H618.15V120Z" fill="#605BFF"/>
<path d="M90.9833 110H107.983V165H90.9833V110Z" fill="#FE47F7"/>
<path d="M140.817 80H157.817V165H140.817V80Z" fill="#FE47F7"/>
<path d="M190.65 125H207.65V165H190.65V125Z" fill="#FE47F7"/>
<path d="M240.483 100H257.483V165H240.483V100Z" fill="#FE47F7"/>
<path d="M290.317 20H307.317V165H290.317V20Z" fill="#FE47F7"/>
<path d="M340.15 60H357.15V165H340.15V60Z" fill="#FE47F7"/>
<path d="M389.983 105H406.983V165H389.983V105Z" fill="#FE47F7"/>
<path d="M439.817 55H456.817V165H439.817V55Z" fill="#FE47F7"/>
<path d="M489.65 45H506.65V165H489.65V45Z" fill="#FE47F7"/>
<path d="M539.483 85H556.483V165H539.483V85Z" fill="#FE47F7"/>
<path d="M589.317 110H606.317V165H589.317V110Z" fill="#FE47F7"/>
<path d="M639.15 110H656.15V165H639.15V110Z" fill="#FE47F7"/>
</g>
<defs>
<clipPath id="clip0_6_19">
<rect width="668" height="200" fill="white"/>
</clipPath>
</defs>
</svg>
