<svg width="142" height="142" viewBox="0 0 142 142" fill="none" xmlns="http://www.w3.org/2000/svg">
<g opacity="0.5">
<path d="M141 71C141 60.8769 138.804 50.8743 134.565 41.6819C130.325 32.4895 124.141 24.326 116.441 17.7545C108.741 11.183 99.7074 6.35976 89.9629 3.61744C80.2183 0.875117 69.9949 0.278957 59.9976 1.87007L61.5694 11.7458C70.1385 10.382 78.9014 10.893 87.2539 13.2435C95.6064 15.5941 103.35 19.7283 109.95 25.361C116.55 30.9937 121.85 37.991 125.484 45.8702C129.118 53.7494 131 62.3231 131 71H141Z" fill="#FE47F7" stroke="white"/>
<path d="M59.9976 1.87007C46.7893 3.97224 34.4597 9.81435 24.4679 18.705C14.4762 27.5957 7.24057 39.1627 3.61743 52.0372C-0.00571394 64.9116 0.135296 78.5546 4.02374 91.3514C7.91218 104.148 15.3853 115.563 25.5586 124.245C35.732 132.928 48.1797 138.514 61.4287 140.343C74.6776 142.171 88.1731 140.166 100.318 134.565C112.463 128.963 122.749 119.999 129.959 108.734C137.168 97.4692 141 84.3746 141 71H131C131 82.4639 127.716 93.6879 121.536 103.344C115.356 112.999 106.54 120.682 96.1298 125.484C85.7198 130.285 74.1523 132.004 62.796 130.436C51.4398 128.869 40.7703 124.081 32.0503 116.639C23.3302 109.197 16.9247 99.4128 13.5918 88.444C10.2588 77.4753 10.1379 65.7814 13.2435 54.7461C16.349 43.7109 22.551 33.7963 31.1154 26.1757C39.6797 18.5552 50.248 13.5476 61.5694 11.7458L59.9976 1.87007Z" fill="#605BFF" stroke="white"/>
</g>
</svg>
