<svg width="142" height="142" viewBox="0 0 142 142" fill="none" xmlns="http://www.w3.org/2000/svg">
<path d="M141 71C141 58.382 137.589 45.9985 131.129 35.1598L122.539 40.2798C128.077 49.5702 131 60.1845 131 71H141Z" fill="#D2EE2B" stroke="white"/>
<path d="M131.129 35.1598C123.234 21.9144 111.186 11.6465 96.857 5.95068C82.5278 0.254822 66.7187 -0.550255 51.8849 3.66047L54.6157 13.2804C67.3303 9.67121 80.8809 10.3613 93.1632 15.2434C105.445 20.1256 115.772 28.9267 122.539 40.2798L131.129 35.1598Z" fill="#41B38D" stroke="white"/>
<path d="M51.885 3.66048C38.7908 7.37739 27.0644 14.8312 18.1411 25.1096C9.21774 35.388 3.4846 48.045 1.64341 61.5313C-0.197774 75.0176 1.93287 88.7482 7.77458 101.042C13.6163 113.336 22.9156 123.661 34.5342 130.752L39.7436 122.216C29.7848 116.138 21.814 107.288 16.8068 96.7506C11.7996 86.2127 9.97333 74.4437 11.5515 62.884C13.1297 51.3243 18.0438 40.4754 25.6924 31.6654C33.3409 22.8553 43.3922 16.4663 54.6157 13.2804L51.885 3.66048Z" fill="#605BFF" stroke="white"/>
<path d="M34.5342 130.752C45.1462 137.228 57.2915 140.761 69.7216 140.988C82.1516 141.215 94.4179 138.128 105.259 132.043C116.101 125.959 125.126 117.097 131.408 106.368C137.689 95.64 141 83.4321 141 71H131C131 81.6561 128.162 92.12 122.778 101.316C117.394 110.512 109.658 118.108 100.365 123.323C91.0725 128.538 80.5585 131.185 69.9042 130.99C59.2499 130.795 48.8396 127.767 39.7436 122.216L34.5342 130.752Z" fill="#FE47F7" stroke="white"/>
</svg>
